<svg version="1.1" xmlns="http://www.w3.org/2000/svg" style="display: none;">
    <defs>
        <symbol id="katakana-project" viewBox="0 0 751 136">
            <path d="M0 0 C356.4 0 712.8 0 1080 0 C1080 356.4 1080 712.8 1080 1080 C723.6 1080 367.2 1080 0 1080 C0 723.6 0 367.2 0 0 Z " fill="#FEFEFE" transform="translate(0,0)"/>
            <path d="M0 0 C2.75 0.4375 2.75 0.4375 4.75 2.4375 C5.15910131 9.39222235 4.18932948 15.90148694 3.0625 22.75 C1.00737974 35.83483334 -0.52855246 48.96325584 -2 62.125 C-2.11250092 63.13035797 -2.22500183 64.13571594 -2.34091187 65.17153931 C-2.98351651 70.92618061 -3.61948514 76.68152209 -4.25 82.4375 C-3.24509018 82.2243364 -3.24509018 82.2243364 -2.21987915 82.00686646 C-1.33214813 81.82300385 -0.44441711 81.63914124 0.47021484 81.44970703 C1.78449966 81.17466843 1.78449966 81.17466843 3.12533569 80.89407349 C6.89841587 80.23772731 10.55779196 80.21833737 14.375 80.3125 C15.09300781 80.32152344 15.81101562 80.33054687 16.55078125 80.33984375 C18.28400579 80.36295341 20.01705349 80.39879896 21.75 80.4375 C21.75 81.7575 21.75 83.0775 21.75 84.4375 C20.72261719 84.61925781 19.69523438 84.80101562 18.63671875 84.98828125 C17.23693315 85.24193367 15.83719619 85.49585462 14.4375 85.75 C13.43106445 85.92692383 13.43106445 85.92692383 12.40429688 86.10742188 C6.42017775 87.20310566 0.59958139 88.77541673 -5.25 90.4375 C-6.14556095 98.54331365 -7.01397183 106.65164863 -7.86083984 114.76269531 C-8.19124875 117.88271719 -8.54005661 120.99984594 -8.89453125 124.1171875 C-10.82358069 142.17616069 -10.43987073 160.30192404 -10.25 178.4375 C-8.93 178.7675 -7.61 179.0975 -6.25 179.4375 C-6.91 180.7575 -7.57 182.0775 -8.25 183.4375 C-13.68624161 183.79991611 -13.68624161 183.79991611 -16 182.3125 C-21.64361059 173.84708411 -20.48575159 162.15354592 -20.5 152.4375 C-20.50233643 151.71282532 -20.50467285 150.98815063 -20.50708008 150.24151611 C-20.52943416 131.57128607 -18.93297137 113.01881688 -17.25 94.4375 C-26.39294417 97.15007462 -35.37009121 100.18818064 -44.3125 103.5 C-45.50810547 103.93376953 -46.70371094 104.36753906 -47.93554688 104.81445312 C-49.08216797 105.23791016 -50.22878906 105.66136719 -51.41015625 106.09765625 C-52.95135132 106.66432007 -52.95135132 106.66432007 -54.52368164 107.24243164 C-59.05909665 109.23050869 -60.75349357 110.40522948 -62.95751953 114.98754883 C-63.52868719 116.45163778 -64.08635322 117.92104178 -64.6328125 119.39453125 C-64.93315399 120.17511398 -65.23349548 120.95569672 -65.54293823 121.75993347 C-66.4985971 124.25235812 -67.43680559 126.75095625 -68.375 129.25 C-69.01321824 130.92034438 -69.65252966 132.5902715 -70.29296875 134.25976562 C-72.72264664 140.61802381 -75.14580942 146.96223311 -77.25 153.4375 C-78.57 153.1075 -79.89 152.7775 -81.25 152.4375 C-81.89060008 144.05556369 -79.58455446 137.35345324 -76.8125 129.5 C-76.39162109 128.26958984 -75.97074219 127.03917969 -75.53710938 125.77148438 C-72.49503968 116.92757937 -72.49503968 116.92757937 -71.25 114.4375 C-72.17941406 114.7984375 -73.10882813 115.159375 -74.06640625 115.53125 C-75.31487858 116.0006005 -76.56358949 116.46931673 -77.8125 116.9375 C-79.63974609 117.63359375 -79.63974609 117.63359375 -81.50390625 118.34375 C-85.2918919 119.44973121 -88.32903233 119.63935162 -92.25 119.4375 C-92.25 118.1175 -92.25 116.7975 -92.25 115.4375 C-90.79549714 114.58975721 -89.34029857 113.74319086 -87.88208008 112.90185547 C-86.60976227 112.16543284 -85.34144329 111.42206458 -84.0769043 110.67236328 C-81.07561805 108.92126955 -78.33960143 107.46798408 -75.03515625 106.34375 C-66.9078309 103.52428365 -64.158492 98.65801984 -60.5625 91.25 C-58.73154527 87.33785792 -56.98246554 83.39404016 -55.25 79.4375 C-53.83428718 76.30218109 -52.39409502 73.17902182 -50.9375 70.0625 C-50.58445801 69.30573975 -50.23141602 68.54897949 -49.86767578 67.76928711 C-41.73321784 50.6847932 -31.61655997 34.54432185 -20.25 19.4375 C-19.75838379 18.77975586 -19.26676758 18.12201172 -18.76025391 17.44433594 C-17.31069123 15.51570063 -15.84731806 13.59880618 -14.375 11.6875 C-13.73268433 10.84614502 -13.73268433 10.84614502 -13.07739258 9.98779297 C-5.83449165 0.78541234 -5.83449165 0.78541234 0 0 Z " fill="#090909" transform="translate(527.25,724.5625)"/>
            <path d="M0 0 C2.81904873 2.01627327 4.49449706 4.00046774 5.23828125 7.421875 C5.42776059 21.63282567 -2.52103734 30.69068424 -11.65625 40.56054688 C-13.82338817 42.90783177 -15.93184518 45.30549181 -18.04296875 47.703125 C-19.10444476 48.89154041 -20.1664662 50.0794711 -21.23046875 51.265625 C-22.71546875 50.770625 -22.71546875 50.770625 -24.23046875 50.265625 C-23.95895996 49.78319336 -23.68745117 49.30076172 -23.40771484 48.80371094 C-10.33785487 28.73979839 -10.33785487 28.73979839 -6.23046875 6.265625 C-7.33252252 3.41339709 -7.33252252 3.41339709 -10.23046875 2.265625 C-27.14505885 0.91130518 -43.42063099 13.68193866 -55.63671875 24.01171875 C-56.49265625 24.75550781 -57.34859375 25.49929688 -58.23046875 26.265625 C-59.10703125 27.01972656 -59.98359375 27.77382813 -60.88671875 28.55078125 C-73.0407751 38.6716122 -73.0407751 38.6716122 -79.4921875 52.4921875 C-79.35228289 56.89550108 -78.53812046 58.89794369 -75.66796875 62.328125 C-67.17181004 68.52394035 -57.08964081 72.48164553 -47.4921875 76.64453125 C-46.79859634 76.94575897 -46.10500519 77.24698669 -45.39039612 77.55734253 C-41.88380023 79.07784509 -38.37295535 80.58701247 -34.85375977 82.078125 C-8.11642969 93.49370311 -8.11642969 93.49370311 -2.23046875 105.265625 C-1.61788734 111.70951017 -2.24041283 116.53468449 -5.23046875 122.265625 C-4.57046875 122.595625 -3.91046875 122.925625 -3.23046875 123.265625 C-3.70355469 123.59433594 -4.17664063 123.92304688 -4.6640625 124.26171875 C-8.60754244 127.09825695 -12.03524373 130.02741532 -15.35546875 133.578125 C-23.57376967 141.98062922 -34.29516457 148.10368087 -45.23046875 152.265625 C-46.05289063 152.58402344 -46.8753125 152.90242187 -47.72265625 153.23046875 C-53.67945002 155.19494329 -59.44511202 155.56794114 -65.66796875 155.640625 C-66.84081421 155.66153198 -66.84081421 155.66153198 -68.03735352 155.68286133 C-72.35840271 155.64678621 -75.11811885 155.40287369 -78.23046875 152.265625 C-77.86498877 149.65133506 -77.50520989 148.51282562 -75.51342773 146.72070312 C-69.96540526 143.16938416 -64.37422573 140.29041725 -58.29296875 137.765625 C-57.38562988 137.38325684 -56.47829102 137.00088867 -55.54345703 136.60693359 C-44.09840478 131.86093755 -32.38239711 127.78414373 -20.296875 125.00390625 C-17.1424003 123.87688221 -15.77850788 122.16374932 -14.0625 119.3515625 C-12.19298974 114.66462128 -12.72725806 109.77525707 -14.29296875 105.078125 C-18.60931292 98.81246411 -24.53575251 95.22561011 -31.35546875 92.140625 C-32.54765015 91.58592529 -32.54765015 91.58592529 -33.76391602 91.02001953 C-38.95755788 88.64213718 -44.21323775 86.42707454 -49.5 84.265625 C-50.13145935 84.00701691 -50.7629187 83.74840881 -51.41351318 83.48196411 C-54.54526587 82.20222868 -57.68134609 80.93720617 -60.82666016 79.69091797 C-84.82582153 70.0194174 -84.82582153 70.0194174 -91.10546875 60.390625 C-92.69185217 55.98400439 -93.14611427 52.63657184 -91.421875 48.171875 C-85.90406304 37.32717882 -76.67549143 29.60339162 -67.23046875 22.265625 C-66.20824219 21.43933594 -65.18601562 20.61304688 -64.1328125 19.76171875 C-53.13589145 10.94633905 -41.48347054 4.20301782 -28.23046875 -0.734375 C-27.11671875 -1.1675 -26.00296875 -1.600625 -24.85546875 -2.046875 C-16.30323104 -3.66885112 -7.93933791 -3.82545536 0 0 Z " fill="#090909" transform="translate(524.23046875,374.734375)"/>
            <path d="M0 0 C1.2065625 0.0309375 1.2065625 0.0309375 2.4375 0.0625 C2.65464139 5.30782161 1.93430998 9.76257103 0.4375 14.75 C0.22037354 15.5018457 0.00324707 16.25369141 -0.22045898 17.02832031 C-0.71353832 18.734601 -1.21045152 20.43977676 -1.71044922 22.14404297 C-3.02237703 26.63767766 -4.29855911 31.14141531 -5.58007812 35.64379883 C-6.5828379 39.16446965 -7.58939623 42.68402584 -8.59765625 46.203125 C-8.91750488 47.32396484 -9.23735352 48.44480469 -9.56689453 49.59960938 C-10.25683325 51.99933738 -10.95639053 54.39631289 -11.66357422 56.79101562 C-12.02080566 58.00982422 -12.37803711 59.22863281 -12.74609375 60.484375 C-13.0702124 61.5784668 -13.39433105 62.67255859 -13.72827148 63.79980469 C-14.60011577 67.20961652 -15.12583451 70.57248621 -15.5625 74.0625 C-14.87285156 73.90136719 -14.18320312 73.74023438 -13.47265625 73.57421875 C-10.26883382 73.01086205 -7.25219758 72.8938424 -4 72.875 C-2.88496094 72.86082031 -1.76992188 72.84664062 -0.62109375 72.83203125 C2.32241377 73.05382811 3.9581192 73.5287999 6.4375 75.0625 C6.4375 76.0525 6.4375 77.0425 6.4375 78.0625 C5.85782471 78.1126123 5.27814941 78.16272461 4.6809082 78.21435547 C2.03650423 78.44747534 -0.60668287 78.69237578 -3.25 78.9375 C-4.16201172 79.01613281 -5.07402344 79.09476563 -6.01367188 79.17578125 C-6.89990234 79.25957031 -7.78613281 79.34335937 -8.69921875 79.4296875 C-9.91677856 79.53966064 -9.91677856 79.53966064 -11.15893555 79.65185547 C-13.96669486 80.13155594 -16.07096025 80.65292374 -18.5625 82.0625 C-19.82939243 84.57104449 -19.82939243 84.57104449 -20.44140625 87.63671875 C-20.72306641 88.78076172 -21.00472656 89.92480469 -21.29492188 91.10351562 C-21.56884766 92.30685547 -21.84277344 93.51019531 -22.125 94.75 C-22.68811971 97.08740408 -23.25192648 99.42464275 -23.81640625 101.76171875 C-24.1004834 102.96481689 -24.38456055 104.16791504 -24.67724609 105.4074707 C-25.54834732 109.00406654 -26.4852219 112.57570638 -27.44921875 116.1484375 C-30.0316607 125.73352137 -32.41575258 135.36711885 -34.8125 145 C-35.27593037 146.85875171 -35.73947136 148.71747585 -36.203125 150.57617188 C-37.32418845 155.07129862 -38.44376728 159.56679265 -39.5625 164.0625 C-40.8825 164.3925 -42.2025 164.7225 -43.5625 165.0625 C-44.7266433 151.99822517 -41.55367659 140.19569211 -38.42236328 127.59423828 C-36.97929365 121.66708175 -35.68108952 115.70856521 -34.375 109.75 C-32.48603383 101.17591461 -30.55044136 92.61421794 -28.5625 84.0625 C-33.8337027 85.47329521 -39.09701854 86.90718046 -44.3515625 88.37890625 C-48.32831306 89.48411203 -52.30239629 90.46597934 -56.3359375 91.33984375 C-58.11981893 91.76811561 -59.90367427 92.1964962 -61.6875 92.625 C-62.52120117 92.77855957 -63.35490234 92.93211914 -64.21386719 93.09033203 C-66.82942231 93.75749912 -68.4576555 94.35915116 -70.5625 96.0625 C-72.62848896 100.22601974 -73.55836458 104.54297332 -74.5625 109.0625 C-75.16080402 111.28059086 -75.76618504 113.49678586 -76.37890625 115.7109375 C-76.96512964 117.95203261 -77.54710104 120.1942439 -78.125 122.4375 C-78.42801025 123.60837158 -78.73102051 124.77924316 -79.04321289 125.9855957 C-81.17004404 134.29894409 -83.07593995 142.61034427 -84.5625 151.0625 C-86.5 151.625 -86.5 151.625 -88.5625 152.0625 C-90.26451452 150.36048548 -89.85717142 148.34497653 -89.9375 146 C-89.89820254 137.11877452 -87.78759838 128.65712069 -85.8515625 120.02734375 C-84.69516734 114.86639497 -83.8049587 109.69044948 -83.00537109 104.46313477 C-82.5625 102.0625 -82.5625 102.0625 -81.5625 100.0625 C-82.119375 100.2790625 -82.67625 100.495625 -83.25 100.71875 C-88.61438593 102.67602595 -92.86102383 103.37348961 -98.5625 103.0625 C-98.4921875 101.29296875 -98.4921875 101.29296875 -97.5625 99.0625 C-95.26238533 97.64184094 -93.12642934 96.4922341 -90.6875 95.375 C-90.04941406 95.06755859 -89.41132813 94.76011719 -88.75390625 94.44335938 C-86.05518329 93.15597274 -83.40109572 92.00869857 -80.5625 91.0625 C-79.481814 88.11545686 -78.61282775 85.27591181 -77.8125 82.25 C-77.55936035 81.33379883 -77.3062207 80.41759766 -77.04541016 79.47363281 C-75.53161753 73.92091263 -74.12857811 68.34348586 -72.7578125 62.75390625 C-72.45456055 61.51938721 -72.15130859 60.28486816 -71.83886719 59.01293945 C-71.24944758 56.59315804 -70.66898895 54.17117174 -70.09863281 51.74682617 C-66.23335054 35.73335054 -66.23335054 35.73335054 -62.5625 32.0625 C-60.56291636 32.02169217 -58.56204746 32.01995644 -56.5625 32.0625 C-56.37951645 37.19263335 -56.97810664 41.48413965 -58.296875 46.4375 C-58.66628351 47.85019039 -59.0354149 49.26295328 -59.40429688 50.67578125 C-59.6917981 51.75980225 -59.6917981 51.75980225 -59.98510742 52.86572266 C-60.92549611 56.44357357 -61.81201201 60.03462327 -62.703125 63.625 C-63.05441981 65.0313169 -63.40598154 66.43756714 -63.7578125 67.84375 C-63.93086914 68.53597656 -64.10392578 69.22820312 -64.28222656 69.94140625 C-65.70898438 75.6484375 -67.13574219 81.35546875 -68.5625 87.0625 C-62.91743984 85.70684897 -57.27599774 84.33732743 -51.63745117 82.95483398 C-49.71878631 82.48648314 -47.79918837 82.02193779 -45.87866211 81.5612793 C-43.1183875 80.89849948 -40.36175708 80.22210982 -37.60546875 79.54296875 C-36.74600143 79.33971481 -35.88653412 79.13646088 -35.00102234 78.92704773 C-34.20041885 78.7270668 -33.39981537 78.52708588 -32.57495117 78.32104492 C-31.8710173 78.15005783 -31.16708344 77.97907074 -30.44181824 77.80290222 C-28.22193955 76.92832809 -27.08980018 75.87830663 -25.5625 74.0625 C-24.80313075 72.19039846 -24.80313075 72.19039846 -24.38671875 70.09765625 C-24.20181885 69.30818604 -24.01691895 68.51871582 -23.82641602 67.70532227 C-23.63619873 66.85381592 -23.44598145 66.00230957 -23.25 65.125 C-21.3794453 57.20901901 -19.25410115 49.42901368 -16.86621094 41.65454102 C-15.25153589 36.38725655 -13.72764983 31.10333038 -12.25830078 25.79370117 C-5.13159242 0.12516079 -5.13159242 0.12516079 0 0 Z " fill="#0B0B0B" transform="translate(539.5625,539.9375)"/>
            <path d="M0 0 C0.8125 1.6875 0.8125 1.6875 1 4 C-0.60695304 5.91797621 -2.11040331 7.39080234 -4 9 C-9.75539277 13.92905984 -15.21896279 19.06494811 -20.5625 24.4375 C-21.27857422 25.14970703 -21.99464844 25.86191406 -22.73242188 26.59570312 C-26.08398353 29.95336408 -29.34208167 33.34197086 -32.43359375 36.94140625 C-37.29551355 42.58184383 -42.66895325 47.71367752 -47.97265625 52.93359375 C-52.25000989 57.16975298 -56.33462302 61.47123181 -60.25341797 66.03955078 C-64.08675646 70.34227766 -68.32039628 74.27802637 -72.47851562 78.26367188 C-73.16236328 78.93333984 -73.84621094 79.60300781 -74.55078125 80.29296875 C-75.16606689 80.8861792 -75.78135254 81.47938965 -76.4152832 82.09057617 C-78.22118848 84.2665098 -79.08044007 86.34091773 -80 89 C-79.40703125 89.68940674 -78.8140625 90.37881348 -78.203125 91.08911133 C-75.88755385 94.14856998 -74.35868428 97.09402358 -72.75 100.57421875 C-72.30781883 101.52346977 -72.30781883 101.52346977 -71.85670471 102.49189758 C-70.89798526 104.55416162 -69.94900604 106.62075059 -69 108.6875 C-68.3325741 110.12724266 -67.66451672 111.56669275 -66.99584961 113.00585938 C-64.98796953 117.33299184 -62.99236399 121.66570538 -61 126 C-60.70619446 126.63891174 -60.41238892 127.27782349 -60.10968018 127.93609619 C-59.28263198 129.7346844 -58.45576635 131.53335656 -57.62890625 133.33203125 C-56.8548645 135.01486206 -56.8548645 135.01486206 -56.06518555 136.73168945 C-55.07420192 138.88705872 -54.08474634 141.0431313 -53.09692383 143.19995117 C-49.94953337 150.04288226 -46.68154027 156.80973275 -43.14477539 163.4609375 C-42.37257406 164.94554354 -41.67704861 166.46965521 -41 168 C-41.33 168.66 -41.66 169.32 -42 170 C-45.30081419 169.71145106 -46.67983584 169.3355773 -49.00317383 166.90039062 C-53.57221889 160.27123528 -57.79285032 153.54713509 -61.6875 146.5 C-62.27837402 145.43845703 -62.86924805 144.37691406 -63.47802734 143.28320312 C-71.41447011 128.83950967 -78.9334295 113.94014157 -85.03857422 98.62695312 C-85.96933062 96.64585812 -85.96933062 96.64585812 -89 96 C-94.49476994 113.19974495 -94.49476994 113.19974495 -97 131 C-99.86724686 130.42655063 -100.8614515 130.1385485 -103 128 C-103.44634178 121.46853192 -102.40434258 115.29248783 -101.25 108.875 C-101.06735596 107.84874512 -100.88471191 106.82249023 -100.6965332 105.76513672 C-99.4046748 98.72520296 -97.75864755 91.91805402 -95.62890625 85.08203125 C-94.23102141 80.45425102 -92.97880197 75.78337803 -91.6875 71.125 C-80.64426284 31.62613796 -80.64426284 31.62613796 -76 20 C-75.61328125 19.00097656 -75.2265625 18.00195312 -74.828125 16.97265625 C-73.71988785 14.40715921 -72.71662497 12.20435685 -71 10 C-67.1875 8.875 -67.1875 8.875 -64 9 C-64.81956121 13.74583121 -66.22432673 18.27645284 -67.625 22.875 C-67.88861328 23.74777588 -68.15222656 24.62055176 -68.42382812 25.51977539 C-69.85340807 30.2466798 -71.29592193 34.96958401 -72.7421875 39.69140625 C-76.63841864 52.42212758 -80.38963818 65.18519926 -84 78 C-83.30648438 77.30519531 -82.61296875 76.61039062 -81.8984375 75.89453125 C-79.91042581 73.90582005 -77.91453723 71.92538864 -75.9140625 69.94921875 C-70.65145844 64.73736916 -65.46791168 59.54140089 -60.671875 53.890625 C-57.99100126 50.85898273 -55.07530129 48.0675006 -52.1953125 45.2265625 C-49.55993257 42.55366826 -47.12233511 39.74631697 -44.6796875 36.8984375 C-42.50622914 34.4419241 -40.17993784 32.16664688 -37.83886719 29.87133789 C-36.08124244 28.08267702 -34.44798028 26.2388759 -32.8203125 24.33203125 C-28.85002059 19.76798208 -24.64939529 15.46567126 -20.375 11.1875 C-19.63765625 10.43791016 -18.9003125 9.68832031 -18.140625 8.91601562 C-17.42132812 8.19478516 -16.70203125 7.47355469 -15.9609375 6.73046875 C-15.31946777 6.08489014 -14.67799805 5.43931152 -14.01708984 4.77416992 C-9.36041159 0.67829956 -6.22141058 -0.36596533 0 0 Z " fill="#090909" transform="translate(563,7)"/>
            <path d="M0 0 C2.125 0.375 2.125 0.375 4 1 C3.62829033 8.06248378 1.79442275 14.1073171 -0.55078125 20.765625 C-1.73764083 24.14344836 -2.77235939 27.55398037 -3.796875 30.984375 C-6.18221749 38.78362201 -9.01733872 46.38989583 -11.9375 54 C-12.21767975 54.73244934 -12.4978595 55.46489868 -12.78652954 56.21954346 C-44.94379383 140.02016764 -44.94379383 140.02016764 -74.22265625 155.1484375 C-79.42764512 157.3347334 -84.18097158 157.73831697 -89.625 156.3125 C-95.30346851 153.17439898 -97.5764406 149.37656803 -99.421875 143.37890625 C-102.27618271 131.63381574 -101.08963352 119.70212708 -99.85229492 107.81835938 C-99.0388668 99.86859603 -98.50248837 91.91238008 -98 83.9375 C-97.42731219 75.0535542 -96.83338517 66.17631196 -96 57.3125 C-95.89365234 56.09324829 -95.89365234 56.09324829 -95.78515625 54.84936523 C-95.41940795 51.17624163 -95.0853445 49.12801676 -93 46 C-90.5625 46.375 -90.5625 46.375 -88 47 C-86.63376326 49.73247348 -86.871574 51.98198902 -87 55 C-87.495 55.495 -87.495 55.495 -88 56 C-89.28153043 64.54880998 -89.31527802 73.31133301 -89.5625 81.9375 C-89.58301422 82.63600067 -89.60352844 83.33450134 -89.62466431 84.0541687 C-89.94126136 95.09772717 -90.12822786 106.14219241 -90.17623901 117.19021606 C-90.18368191 118.75816691 -90.19430658 120.32610623 -90.20828247 121.89401245 C-90.2918384 132.15872807 -90.08897437 140.74731933 -85 150 C-76.03653692 149.00405966 -70.45145795 142.98482136 -64.8840332 136.29858398 C-37.62738496 102.10877526 -22.75093486 57.01600145 -7.54296875 16.453125 C-7.17276611 15.46965088 -6.80256348 14.48617676 -6.42114258 13.47290039 C-5.74479686 11.67210032 -5.0736931 9.8693189 -4.40893555 8.06420898 C-4.11672119 7.28376221 -3.82450684 6.50331543 -3.5234375 5.69921875 C-3.27513184 5.02721436 -3.02682617 4.35520996 -2.77099609 3.6628418 C-2 2 -2 2 0 0 Z " fill="#0A0A0A" transform="translate(549,888)"/>
            <path d="M0 0 C1.02222656 -0.01675781 2.04445313 -0.03351563 3.09765625 -0.05078125 C6.25913483 0.35364448 7.6086864 1.19590442 9.9375 3.3125 C9.68798885 10.17405667 7.68806294 15.22817386 2.9375 20.3125 C0.73828125 21.06640625 0.73828125 21.06640625 -1.0625 21.3125 C-0.8459375 19.6109375 -0.8459375 19.6109375 -0.625 17.875 C-0.05948633 13.35896944 0.44524809 8.83702819 0.9375 4.3125 C-19.5009626 8.92918802 -47.37865847 26.7867377 -59.0625 44.3125 C-53.82845709 43.7884934 -48.97497454 42.83955599 -43.90673828 41.4453125 C-22.87516286 35.6692347 -22.87516286 35.6692347 -14.25 39.8125 C-13.528125 40.3075 -12.80625 40.8025 -12.0625 41.3125 C-11.55667205 47.24853974 -12.57890604 49.84682316 -16.3125 54.4375 C-17.10140625 55.43007812 -17.8903125 56.42265625 -18.703125 57.4453125 C-30.82903742 71.62842169 -44.26301264 84.57688411 -57.52563477 97.6796875 C-60.23385502 100.35745676 -62.93560889 103.04162358 -65.63671875 105.7265625 C-66.44944748 106.5258316 -67.26217621 107.32510071 -68.09953308 108.14859009 C-79.53896545 118.60283663 -79.53896545 118.60283663 -85.0625 132.3125 C-70.33179523 127.6973786 -55.89425746 122.43599842 -41.5 116.875 C-40.23713669 116.38784012 -40.23713669 116.38784012 -38.94876099 115.89083862 C-30.81738618 112.75095827 -22.69835845 109.58539954 -14.62109375 106.30859375 C-13.55511963 105.87925537 -12.48914551 105.44991699 -11.39086914 105.00756836 C-9.48810532 104.23762301 -7.58972834 103.45670024 -5.69702148 102.66235352 C1.63277026 99.69603006 1.63277026 99.69603006 5.9375 101.3125 C3.10907056 104.41000934 0.5601972 106.21709719 -3.25 107.94921875 C-4.32048584 108.43608154 -5.39097168 108.92294434 -6.49389648 109.42456055 C-8.26035522 110.20440308 -8.26035522 110.20440308 -10.0625 111 C-10.67022247 111.27107574 -11.27794495 111.54215149 -11.90408325 111.82144165 C-28.30447078 119.11889923 -45.10296106 125.46291382 -61.87109375 131.85546875 C-62.71063095 132.1757605 -63.55016815 132.49605225 -64.41514587 132.8260498 C-71.48207414 135.50544532 -77.59426627 137.66027988 -85.25 137.625 C-86.31637695 137.64916992 -86.31637695 137.64916992 -87.40429688 137.67382812 C-92.52087062 137.67864146 -92.52087062 137.67864146 -95.015625 135.9921875 C-96.91123892 132.95071741 -96.57797395 130.80626786 -96.0625 127.3125 C-91.99852792 119.91749748 -85.04794425 114.07842837 -79.08590889 108.21614456 C-77.21737284 106.37812576 -75.35589782 104.53320696 -73.49607849 102.68637085 C-68.21162639 97.44137715 -62.91443458 92.20931911 -57.61401367 86.98046875 C-54.35869124 83.76815336 -51.11094822 80.54832379 -47.86738396 77.32413864 C-46.63968105 76.10691206 -45.40907901 74.89260156 -44.17538643 73.68144608 C-37.36981027 67.00002273 -31.11357898 60.47607033 -26.0625 52.3125 C-25.52230728 51.4425943 -24.98211456 50.5726886 -24.42555237 49.67642212 C-23.17028006 47.49942141 -22.51669925 45.76517597 -22.0625 43.3125 C-22.81345947 43.489021 -23.56441895 43.66554199 -24.33813477 43.84741211 C-27.76636656 44.65139552 -31.19566491 45.4507363 -34.625 46.25 C-36.39713867 46.66668945 -36.39713867 46.66668945 -38.20507812 47.09179688 C-45.95529717 48.89366853 -53.32871582 50.43967255 -61.3125 50.5625 C-62.32828125 50.58828125 -63.3440625 50.6140625 -64.390625 50.640625 C-67.0625 50.3125 -67.0625 50.3125 -68.984375 49.109375 C-70.0625 47.3125 -70.0625 47.3125 -70.00390625 44.91015625 C-63.31803219 26.4615826 -30.4607202 11.70541764 -13.98046875 3.65234375 C-13.01753906 3.21019531 -12.05460938 2.76804688 -11.0625 2.3125 C-9.82113281 1.73628906 -9.82113281 1.73628906 -8.5546875 1.1484375 C-5.60160234 0.15790423 -3.11113325 0.01179949 0 0 Z " fill="#0A0A0A" transform="translate(524.0625,195.6875)"/>
            <path d="M0 0 C0.33 0 0.66 0 1 0 C0.31347354 6.80922164 -0.70994345 13.50774405 -1.875 20.25 C-4.43713035 35.36750157 -6.71959206 50.513353 -8.35400391 65.76147461 C-8.673979 68.66833642 -9.0711557 71.2134671 -10 74 C-15.06398028 76.57468258 -20.33834915 78.04978236 -25.8125 79.5 C-27.40388871 79.9300919 -28.99503663 80.36107582 -30.5859375 80.79296875 C-31.72434082 81.10113525 -31.72434082 81.10113525 -32.88574219 81.41552734 C-36.33336114 82.36859891 -39.74517259 83.43188049 -43.15234375 84.51953125 C-45 85 -45 85 -48 85 C-47.44852676 80.06695855 -45.83845347 76.16023891 -43.5625 71.8125 C-43.20687988 71.120354 -42.85125977 70.42820801 -42.48486328 69.71508789 C-41.72073682 68.2322597 -40.95271928 66.75143124 -40.18115234 65.27246094 C-39.01839417 63.03538919 -37.87678658 60.78855642 -36.73828125 58.5390625 C-26.98250737 39.43477277 -15.71213504 21.27351626 -3 4 C-2.41605469 3.18917969 -1.83210937 2.37835937 -1.23046875 1.54296875 C-0.82441406 1.03378906 -0.41835938 0.52460937 0 0 Z " fill="#F7F7F7" transform="translate(522,736)"/>
            <path d="M0 0 C-10.27478408 11.53721489 -26.60233792 20.92818703 -42.24609375 22.1796875 C-43.83184789 22.1860688 -45.41774524 22.10548365 -47 22 C-43.14867015 12.61238348 -28.06252479 8.63874359 -19.25537109 4.9296875 C-4.03407221 -1.34469074 -4.03407221 -1.34469074 0 0 Z " fill="#EDEDED" transform="translate(504,504)"/>
            <path d="M0 0 C-1 2 -1 2 -3.28515625 2.8515625 C-4.65994141 3.23441406 -4.65994141 3.23441406 -6.0625 3.625 C-6.98160156 3.88539063 -7.90070313 4.14578125 -8.84765625 4.4140625 C-9.55792969 4.60742188 -10.26820313 4.80078125 -11 5 C-11 3.68 -11 2.36 -11 1 C-9.5437328 0.63743142 -8.08488815 0.28520207 -6.625 -0.0625 C-5.40683594 -0.35833984 -5.40683594 -0.35833984 -4.1640625 -0.66015625 C-2 -1 -2 -1 0 0 Z " fill="#1C1C1C" transform="translate(502,502)"/>
        </symbol>
    </defs>
</svg>
