<?xml version="1.0" standalone="no"?>
<!DOCTYPE svg PUBLIC "-//W3C//DTD SVG 20010904//EN"
 "http://www.w3.org/TR/2001/REC-SVG-20010904/DTD/svg10.dtd">
<svg version="1.0" xmlns="http://www.w3.org/2000/svg"
 width="853.000000pt" height="1280.000000pt" viewBox="0 0 853.000000 1280.000000"
 preserveAspectRatio="xMidYMid meet">

<g transform="translate(0.000000,1280.000000) scale(0.100000,-0.100000)"
fill="#000000" stroke="none">
<path d="M0 6400 l0 -6400 3478 0 3478 0 21 38 c41 73 55 135 63 272 7 132 8
137 45 208 l39 72 472 0 c312 -1 483 -5 506 -12 18 -6 60 -14 93 -19 33 -4
112 -15 175 -23 63 -8 125 -15 138 -16 l22 0 0 6140 0 6140 -4265 0 -4265 0 0
-6400z m4369 4564 c17 -5 22 -4 17 4 -5 8 3 12 23 12 17 0 31 -4 31 -10 0 -5
-6 -10 -13 -10 -19 0 -17 -28 2 -36 9 -4 32 -8 51 -10 19 -2 40 -10 46 -19 12
-16 30 -20 36 -7 2 5 17 5 35 0 l31 -8 0 -71 c0 -55 4 -75 18 -88 9 -9 14 -10
10 -3 -4 7 -1 13 6 13 7 1 23 3 36 4 16 2 22 -3 22 -16 0 -20 -15 -25 -25 -9
-15 24 -23 7 -13 -27 7 -27 7 -38 -1 -41 -19 -6 -12 -18 23 -37 33 -18 42 -40
11 -29 -7 3 -23 1 -34 -5 -11 -7 -52 -12 -89 -13 -55 -1 -76 3 -104 20 -40 25
-153 33 -130 10 19 -19 14 -26 -14 -20 -21 4 -25 2 -19 -8 5 -8 -9 -3 -29 10
-36 21 -48 23 -163 21 -102 -1 -132 -5 -164 -21 -21 -11 -39 -17 -39 -13 0 3
-10 -3 -22 -14 -13 -12 -40 -25 -61 -28 -45 -9 -56 -23 -32 -41 12 -9 16 -20
11 -38 -6 -23 -12 -26 -49 -27 -76 -2 -122 3 -128 13 -8 13 1 58 12 58 5 0 9
7 9 15 0 17 -16 20 -25 5 -10 -16 -26 0 -20 20 6 19 -20 36 -30 20 -12 -19
-44 -10 -73 20 -28 28 -36 30 -99 29 l-68 -1 38 -17 c42 -20 83 -56 129 -113
l30 -38 -59 1 c-39 1 -61 7 -69 17 -8 11 -28 16 -63 16 l-51 0 0 48 c0 61 -24
88 -78 88 -21 0 -43 -5 -50 -12 -22 -22 -21 -2 5 74 26 77 46 98 92 98 9 0 26
7 37 15 10 8 29 15 42 15 13 0 37 7 53 16 28 14 33 14 74 -6 33 -16 53 -20 77
-14 18 4 47 8 63 10 17 2 41 5 55 7 14 3 30 5 36 6 6 0 24 13 40 28 16 15 34
28 39 29 6 0 18 2 28 2 14 2 17 8 13 25 -3 12 -3 16 0 10 3 -7 10 -13 15 -13
6 0 7 5 3 12 -4 6 -3 8 3 5 11 -7 31 2 93 41 31 19 48 22 145 21 103 -1 184 7
195 18 5 5 40 -1 79 -13z m131 0 c0 -2 -7 -4 -15 -4 -8 0 -15 4 -15 10 0 5 7
7 15 4 8 -4 15 -8 15 -10z m102 -29 c-4 -15 -55 -26 -66 -15 -7 7 -4 10 7 10
9 0 17 5 17 11 0 6 10 9 23 7 12 -2 21 -7 19 -13z m68 -94 c0 -10 -7 -24 -15
-31 -13 -10 -15 -9 -15 12 0 14 3 28 7 31 12 13 23 7 23 -12z m-1630 -316 c-7
-8 -17 -15 -22 -15 -6 0 -5 7 2 15 7 8 17 15 22 15 6 0 5 -7 -2 -15z m-72 -65
c-7 -10 -14 -18 -15 -16 -6 6 9 36 18 36 5 0 4 -9 -3 -20z m813 -120 c16 -9
19 -22 19 -86 0 -88 20 -165 63 -247 29 -55 30 -92 1 -53 -20 28 -25 16 -15
-38 5 -28 21 -63 40 -87 40 -49 50 -98 26 -123 -16 -15 -19 -16 -35 -1 -9 8
-44 25 -76 36 -32 12 -65 25 -71 31 -15 12 -20 8 -87 -59 -30 -29 -51 -43 -61
-39 -29 11 17 -41 61 -69 39 -25 41 -29 34 -58 -4 -18 -12 -43 -18 -57 l-11
-25 0 28 c-1 15 4 27 9 27 31 0 -19 59 -50 60 -9 0 -26 7 -39 16 -22 16 -26
15 -65 -6 -90 -50 -224 -168 -252 -222 -8 -15 -18 -28 -23 -28 -10 0 -24 -38
-22 -57 1 -7 -3 -13 -9 -13 -7 0 -9 -16 -4 -48 5 -38 3 -51 -11 -62 -15 -12
-19 -12 -30 3 -7 10 -15 40 -19 68 -4 27 -10 47 -15 45 -4 -3 -6 6 -3 20 3 19
0 26 -16 31 -35 9 -52 81 -58 245 -5 128 5 271 22 300 2 3 27 -2 54 -13 28
-10 60 -19 72 -19 12 0 30 -8 41 -17 23 -22 113 -23 172 -2 33 12 44 23 72 79
18 35 33 70 33 77 0 14 75 173 120 252 16 30 30 66 30 81 0 15 3 30 7 33 10
11 92 8 114 -3z m1906 -186 c-3 -3 -12 -4 -19 -1 -8 3 -5 6 6 6 11 1 17 -2 13
-5z m-78 -44 c-24 -21 -48 -39 -52 -40 -15 0 28 62 48 70 44 19 45 8 4 -30z
m-903 -123 c-18 -13 -13 -47 8 -47 22 0 37 17 30 33 -4 13 -1 17 14 17 14 0
22 -8 24 -22 2 -14 9 -22 18 -20 72 17 80 16 82 -14 0 -16 0 -37 0 -47 -1 -10
4 -19 11 -21 47 -15 50 -17 39 -28 -7 -7 -12 -25 -12 -40 0 -64 -59 -101 -98
-62 -15 15 -17 15 -25 -7 -29 -73 -49 -109 -56 -104 -15 8 -71 -29 -69 -45 3
-19 -21 -90 -30 -89 -32 5 -50 -32 -26 -52 21 -17 6 -31 -27 -24 -31 7 -41 -8
-12 -19 15 -6 15 -8 3 -16 -9 -6 -17 -5 -21 2 -4 6 -12 -5 -18 -25 -7 -19 -19
-38 -28 -41 -9 -4 -13 -14 -10 -26 3 -12 0 -20 -8 -20 -22 0 -39 -28 -26 -44
8 -10 7 -21 -5 -45 -8 -17 -20 -29 -25 -26 -5 4 -9 -3 -9 -13 0 -11 -7 -26
-16 -33 -11 -9 -14 -23 -11 -44 3 -20 -1 -38 -13 -53 -22 -27 -26 -27 -33 -1
-3 11 -15 23 -27 26 -20 5 -21 10 -16 88 5 78 -6 155 -22 155 -4 0 -17 17 -30
38 -13 20 -37 46 -55 57 -17 11 -38 25 -47 30 -81 54 -106 69 -115 70 -33 2
-74 18 -79 31 -3 8 -17 14 -31 14 -14 0 -25 5 -25 10 0 6 -9 10 -20 10 -11 0
-20 5 -20 10 0 6 -6 10 -13 10 -7 0 -18 9 -25 20 -16 26 -77 28 -91 3 -10 -17
-10 -17 -11 -1 0 12 -6 16 -17 12 -16 -5 -16 -4 -2 5 9 6 20 22 23 36 7 26 17
30 103 39 47 4 53 3 59 -17 4 -11 3 -23 -2 -24 -23 -8 -36 -22 -30 -31 8 -14
114 24 145 52 20 18 22 27 18 71 -3 28 -13 64 -21 81 -17 33 -13 64 9 64 7 0
42 -14 77 -30 84 -39 195 -53 293 -36 48 9 69 16 67 25 -2 9 4 12 18 8 11 -3
20 -1 20 4 0 5 11 14 25 19 15 6 25 17 25 29 0 10 7 21 15 25 8 3 15 13 15 21
0 12 8 15 33 13 17 -2 35 -7 38 -12 4 -5 15 -6 25 -2 18 7 18 9 -3 26 -26 21
-30 35 -8 27 8 -4 17 -2 20 3 4 6 16 10 28 10 19 0 20 -1 3 -13z m124 4 c0 -5
-7 -11 -15 -15 -9 -3 -15 0 -15 9 0 8 7 15 15 15 8 0 15 -4 15 -9z m992 -104
c12 -101 5 -151 -27 -192 -14 -19 -15 -15 -8 40 4 33 7 107 6 163 -1 128 14
122 29 -11z m-182 53 c0 -5 -4 -10 -9 -10 -6 0 -13 5 -16 10 -3 6 1 10 9 10 9
0 16 -4 16 -10z m131 -138 c-9 -25 -9 -24 -10 18 0 36 2 41 10 27 7 -12 7 -27
0 -45z m-87 -79 c-3 -43 -9 -82 -15 -87 -5 -6 -9 -18 -9 -28 0 -10 -13 -24
-30 -33 -33 -17 -41 -4 -11 17 25 18 51 98 51 158 0 28 5 50 10 50 6 0 8 -29
4 -77z m-130 -19 c15 -39 0 -94 -25 -94 -16 0 -18 33 -4 54 9 13 13 31 9 40
-3 9 -2 16 4 16 5 0 13 -7 16 -16z m61 -217 c31 -44 11 -75 -60 -96 -22 -7
-50 -17 -63 -23 -32 -16 -43 -1 -33 45 13 56 37 87 67 87 19 0 25 4 21 14 -9
23 50 -1 68 -27z m-1898 -79 c15 -7 45 -23 66 -36 22 -13 45 -21 53 -18 8 3
14 2 14 -3 0 -4 17 -12 37 -17 20 -5 39 -15 41 -23 3 -10 -3 -9 -26 4 -26 16
-33 16 -47 5 -21 -18 -113 -24 -131 -9 -8 7 -27 9 -46 5 -18 -4 -41 -6 -50 -6
-81 4 -157 -2 -177 -14 -8 -5 -16 -4 -21 4 -6 9 -11 7 -19 -9 -11 -20 -51 -30
-51 -12 0 4 14 22 30 39 17 18 30 37 30 43 0 7 9 9 24 5 16 -4 26 -1 30 9 3 8
15 15 26 15 11 0 23 7 26 15 8 19 149 21 191 3z m267 -124 c5 -12 2 -15 -10
-10 -8 3 -20 6 -25 6 -6 0 -7 5 -4 10 10 15 32 12 39 -6z m-177 -28 c21 -7 42
-22 48 -34 6 -15 16 -20 27 -16 23 7 98 -26 98 -42 0 -23 41 -26 117 -10 36 8
83 -25 83 -58 0 -12 7 -31 15 -43 17 -24 12 -48 -12 -57 -11 -5 -12 -10 -5
-19 15 -17 -2 -42 -22 -34 -16 6 -24 -4 -40 -57 -6 -18 -7 -18 -25 -2 -18 17
-20 16 -26 -3 -4 -13 -11 -18 -18 -14 -30 19 -39 12 -34 -26 4 -35 3 -38 -15
-33 -18 4 -19 1 -13 -27 8 -38 -8 -41 -31 -6 -19 29 -36 34 -27 8 6 -17 5 -17
-14 0 -24 21 -33 22 -33 2 0 -8 -2 -15 -4 -15 -2 0 -11 -3 -20 -6 -10 -4 -16
-1 -16 9 0 8 -13 17 -30 20 -27 6 -29 10 -26 39 3 21 14 41 35 58 18 14 53 44
79 66 l46 42 -38 16 c-21 9 -49 16 -63 16 -13 0 -36 6 -51 14 -19 10 -62 13
-150 12 -114 -1 -124 -3 -140 -23 -9 -12 -28 -23 -42 -25 -21 -2 -25 -8 -24
-34 2 -31 13 -49 67 -101 33 -32 33 -36 2 -67 -34 -34 -56 -36 -85 -5 -30 31
-70 85 -70 95 0 4 -7 12 -15 18 -9 6 -17 27 -19 46 -2 19 -6 43 -11 53 -11 26
13 107 38 128 12 10 33 18 45 19 13 0 35 9 49 20 14 11 34 20 44 20 10 0 32
14 49 30 17 17 42 30 55 30 13 0 27 5 31 11 8 14 136 4 191 -15z m-593 -131
c6 -18 -6 -64 -19 -67 -5 -2 -11 7 -13 20 -2 12 -8 22 -13 22 -13 0 -11 24 2
37 13 13 35 7 43 -12z m876 -297 c0 -19 -2 -20 -10 -8 -13 19 -13 30 0 30 6 0
10 -10 10 -22z m-705 -509 c-66 -32 -45 -141 45 -238 22 -23 43 -53 46 -66 3
-12 17 -33 31 -45 23 -20 25 -20 19 -4 -4 11 -24 48 -44 83 -60 103 -64 111
-58 129 6 17 87 72 107 72 6 0 24 -11 41 -25 16 -14 37 -25 45 -25 9 0 25 -8
36 -17 14 -14 37 -18 91 -18 64 0 77 -4 104 -27 18 -15 32 -30 32 -33 0 -18
65 -83 95 -95 19 -8 35 -20 35 -27 0 -7 11 -13 25 -13 16 0 25 -6 25 -15 0
-10 10 -15 30 -15 18 0 37 -8 47 -20 10 -11 30 -20 45 -20 19 0 33 -8 44 -26
13 -18 19 -22 25 -12 6 9 12 8 27 -5 10 -9 22 -17 26 -17 4 0 24 -16 44 -35
20 -19 42 -35 49 -35 7 0 10 -7 7 -15 -4 -8 -1 -21 4 -28 6 -7 10 -30 9 -50
-2 -38 -2 -38 -37 -33 -32 5 -33 5 -10 -5 14 -6 34 -12 45 -14 11 -1 27 -3 35
-4 9 -2 6 -6 -8 -12 -13 -5 -29 -6 -35 -2 -7 5 -34 9 -62 10 -27 1 -52 3 -55
4 -3 1 -9 1 -14 0 -4 -1 -14 4 -22 10 -11 9 -14 8 -14 -2 0 -11 -2 -11 -8 -1
-5 7 -35 15 -68 18 -32 4 -61 10 -64 14 -8 13 -92 32 -99 23 -9 -14 -41 -24
-41 -13 0 6 7 10 15 10 32 0 13 18 -32 30 -27 7 -52 17 -58 21 -5 5 -17 9 -27
9 -10 0 -18 5 -18 10 0 6 -6 10 -12 10 -23 0 -119 49 -156 80 -20 16 -40 30
-44 30 -3 0 -20 14 -36 30 -17 17 -39 30 -49 30 -22 1 -67 38 -77 64 -3 10 -9
16 -13 13 -3 -4 -15 -1 -26 5 -17 9 -19 8 -14 -6 4 -9 2 -16 -4 -16 -6 0 -9
-6 -6 -14 3 -7 0 -19 -6 -26 -9 -9 -8 -15 5 -23 15 -10 14 -14 -14 -39 -37
-33 -44 -31 -23 8 19 38 19 41 -6 47 -16 4 -20 11 -16 26 7 29 -9 26 -29 -4
-17 -26 -10 -50 12 -41 8 3 14 2 14 -2 0 -14 -24 -32 -43 -32 -11 0 -21 -9
-24 -20 -5 -19 -8 -18 -34 11 -44 49 -34 64 24 35 23 -13 27 -13 27 0 0 8 -9
14 -20 14 -11 0 -20 5 -20 10 0 6 7 10 16 10 10 0 12 4 7 13 -4 6 -8 17 -8 22
0 6 -11 11 -25 12 -16 1 -18 0 -7 -3 24 -7 16 -28 -11 -32 -15 -2 -22 2 -23
15 -1 17 -2 17 -6 1 -8 -31 -19 -20 -58 57 -39 79 -59 92 -75 50 -5 -14 -14
-25 -20 -25 -5 0 -12 -11 -16 -25 -8 -31 -28 -32 -48 -3 -15 20 -16 21 -16 4
0 -11 7 -28 17 -38 22 -24 8 -36 -17 -13 -24 22 -70 13 -77 -15 -6 -21 -53
-29 -53 -10 0 6 6 10 13 10 22 0 49 34 37 46 -7 7 -2 14 15 22 22 10 25 10 23
-4 -2 -10 3 -19 11 -22 9 -3 11 1 6 17 -4 14 -1 23 9 27 9 3 13 10 10 15 -9
16 -43 10 -107 -20 -34 -15 -84 -37 -112 -47 -27 -10 -70 -29 -95 -42 -47 -24
-44 -24 48 -2 17 4 32 6 32 5 0 -2 -17 -14 -37 -26 -21 -13 -40 -26 -43 -29
-13 -15 -70 -50 -82 -50 -7 0 -43 -27 -78 -60 -62 -58 -80 -68 -124 -69 -20
-1 -20 -1 0 -16 19 -14 18 -14 -3 -15 -13 0 -24 -7 -24 -15 -1 -8 -2 -21 -3
-27 -1 -18 -49 -43 -54 -28 -3 8 -8 8 -18 -1 -9 -8 -11 -16 -4 -29 12 -23 1
-33 -17 -15 -9 10 -24 13 -40 9 -14 -4 -35 -8 -47 -9 -32 -4 -33 -5 -8 -15 12
-5 22 -14 22 -19 0 -15 -32 -22 -46 -10 -7 6 -19 7 -25 3 -8 -5 -10 -2 -6 8 3
9 -1 25 -9 37 -14 19 -13 21 0 21 9 0 16 -5 16 -10 0 -6 11 -8 28 -4 36 9 38
12 18 27 -16 12 -16 13 3 13 14 0 21 -7 21 -18 0 -10 5 -18 10 -18 16 0 12 37
-5 44 -22 8 -18 26 5 26 23 0 24 4 9 31 -8 16 -7 25 7 40 16 17 16 19 1 19
-10 0 -17 -7 -17 -15 0 -8 -5 -15 -11 -15 -6 0 -8 -9 -4 -20 5 -15 2 -20 -14
-20 -31 0 -50 11 -45 25 3 7 1 16 -5 20 -10 6 -15 -6 -12 -31 3 -28 -78 -20
-100 9 -3 4 -14 4 -24 1 -16 -6 -13 -10 16 -20 19 -7 28 -13 22 -13 -7 -1 -13
-6 -13 -13 0 -6 3 -8 7 -5 8 9 34 -13 28 -23 -2 -4 -18 -6 -34 -4 -22 3 -31
-1 -36 -16 -7 -21 -37 -22 -74 -1 -14 8 -26 9 -30 4 -3 -6 -19 -14 -36 -18
-21 -6 -25 -9 -12 -12 9 -3 17 -8 17 -13 0 -17 -12 -40 -22 -40 -5 0 -6 5 -3
10 4 6 -5 10 -20 10 -14 0 -28 7 -31 15 -4 8 -11 15 -16 15 -6 0 -8 -6 -5 -14
3 -8 1 -17 -6 -19 -7 -2 3 -7 21 -11 18 -4 30 -12 26 -17 -3 -5 1 -9 8 -9 8 0
6 -5 -5 -11 -9 -6 -15 -15 -11 -21 4 -7 10 -5 16 3 7 10 8 5 4 -13 -6 -24 -3
-28 16 -28 l23 -1 -24 -19 c-12 -11 -28 -17 -33 -14 -6 4 -5 10 3 16 11 8 11
9 -1 5 -9 -2 -15 -15 -15 -30 1 -15 -2 -27 -5 -27 -3 0 -22 16 -43 35 -63 58
-100 83 -144 96 -24 7 -43 16 -43 21 0 4 -20 8 -45 8 -25 0 -45 -4 -45 -10 0
-5 9 -10 21 -10 31 0 59 -18 53 -35 -4 -8 -1 -15 5 -15 6 0 11 -4 11 -9 0 -5
-27 -8 -60 -7 -33 2 -60 0 -60 -5 0 -5 16 -9 35 -9 67 0 30 -41 -42 -46 -58
-5 -78 -20 -37 -29 47 -11 51 -13 21 -14 -20 -1 -30 -8 -37 -27 -7 -17 -15
-24 -25 -20 -9 3 -15 0 -15 -9 0 -8 -5 -15 -11 -15 -5 0 -7 5 -4 10 3 6 -1 10
-10 10 -12 0 -15 -6 -10 -19 10 -32 -5 -71 -27 -71 -10 0 -17 -4 -14 -9 4 -5
-4 -7 -16 -4 -22 5 -22 4 2 -16 14 -11 34 -19 44 -18 10 1 21 -4 23 -10 6 -17
-33 -17 -49 0 -9 10 -17 11 -35 3 -12 -6 -22 -15 -22 -21 3 -31 -2 -43 -19
-39 -21 6 -65 -33 -58 -52 3 -8 0 -14 -7 -14 -7 -1 -5 -6 6 -14 13 -10 15 -21
11 -45 -4 -18 -10 -28 -13 -23 -3 5 -27 11 -53 14 -44 5 -47 4 -37 -13 5 -11
19 -19 30 -19 14 0 18 -4 12 -12 -4 -7 -6 -21 -5 -30 2 -12 -3 -18 -17 -18
-27 0 -27 -14 1 -40 19 -17 19 -20 4 -20 -9 0 -14 -5 -11 -10 3 -6 -4 -14 -17
-19 -17 -7 -19 -10 -5 -10 30 -1 13 -35 -18 -36 -5 0 -11 -8 -13 -17 -2 -10 1
-18 7 -18 23 0 10 -18 -17 -23 -15 -3 -38 -15 -51 -26 -21 -18 -22 -21 -6 -21
10 0 26 7 36 16 10 9 23 13 28 9 15 -9 -19 -54 -41 -55 -10 0 -18 -5 -18 -11
0 -6 8 -8 19 -4 31 9 35 -32 5 -58 -13 -11 -24 -27 -24 -34 0 -8 -5 -11 -11
-8 -5 4 -19 -1 -30 -11 -18 -17 -19 -16 -19 18 0 20 7 41 15 48 10 8 12 17 6
24 -12 14 20 149 41 174 8 10 15 33 16 52 3 42 55 195 88 258 13 25 24 50 24
56 0 6 10 23 23 37 12 13 29 37 37 51 24 43 134 178 201 248 35 36 62 70 61
77 -3 14 45 53 66 53 8 0 29 9 48 20 18 12 65 32 106 46 40 13 82 29 93 34 11
5 61 20 110 34 105 29 160 47 270 88 148 56 294 98 339 98 12 0 26 4 31 9 6 5
38 17 73 26 35 9 110 36 167 60 58 25 109 45 114 45 4 0 24 11 43 24 20 13 55
27 78 31 78 13 245 65 270 83 14 11 43 22 64 26 45 9 86 33 86 51 0 23 68 85
92 84 22 0 22 -1 3 -10z m2105 -148 c0 -17 -18 -21 -24 -6 -3 9 0 15 9 15 8 0
15 -4 15 -9z m-1525 -121 c3 -5 1 -10 -4 -10 -6 0 -11 5 -11 10 0 6 2 10 4 10
3 0 8 -4 11 -10z m1640 -50 c3 -6 -1 -7 -9 -4 -18 7 -21 14 -7 14 6 0 13 -4
16 -10z m-2810 -20 c-3 -5 -11 -10 -16 -10 -6 0 -7 5 -4 10 3 6 11 10 16 10 6
0 7 -4 4 -10z m650 -50 c3 -6 -1 -7 -9 -4 -18 7 -21 14 -7 14 6 0 13 -4 16
-10z m-17 -79 c3 -8 -1 -12 -9 -9 -7 2 -15 10 -17 17 -3 8 1 12 9 9 7 -2 15
-10 17 -17z m-38 -11 c0 -5 -7 -10 -15 -10 -8 0 -15 5 -15 10 0 6 7 10 15 10
8 0 15 -4 15 -10z m-70 -10 c0 -5 -4 -10 -9 -10 -6 0 -13 5 -16 10 -3 6 1 10
9 10 9 0 16 -4 16 -10z m80 -44 c0 -15 -7 -26 -21 -29 -16 -4 -18 -3 -9 8 6 7
8 20 4 29 -4 11 -1 16 10 16 10 0 16 -9 16 -24z m300 4 c0 -5 -7 -10 -16 -10
-8 0 -12 5 -9 10 3 6 10 10 16 10 5 0 9 -4 9 -10z m2340 0 c13 -8 13 -10 -2
-10 -9 0 -20 5 -23 10 -8 13 5 13 25 0z m-2709 -17 c13 -16 12 -17 -3 -4 -17
13 -22 21 -14 21 2 0 10 -8 17 -17z m108 -64 c-18 -11 -41 -7 -46 8 -3 7 3 9
16 6 16 -4 21 -1 21 13 1 19 1 19 11 0 9 -14 8 -21 -2 -27z m2897 -11 c3 -5
-5 -6 -20 -2 -17 4 -26 2 -26 -5 0 -7 -9 -9 -25 -5 -16 4 -25 2 -25 -6 0 -6
-5 -8 -12 -4 -16 10 52 41 80 36 12 -3 25 -9 28 -14z m-2886 -12 c0 -3 -4 -8
-10 -11 -5 -3 -10 -1 -10 4 0 6 5 11 10 11 6 0 10 -2 10 -4z m1725 -21 c-26
-22 -55 -33 -55 -21 0 7 64 46 75 45 6 0 -3 -11 -20 -24z m-1835 -5 c0 -5 -2
-10 -4 -10 -3 0 -8 5 -11 10 -3 6 -1 10 4 10 6 0 11 -4 11 -10z m155 0 c3 -5
-1 -10 -9 -10 -9 0 -16 5 -16 10 0 6 4 10 9 10 6 0 13 -4 16 -10z m-1430 -10
c3 -5 -1 -10 -9 -10 -9 0 -16 5 -16 10 0 6 4 10 9 10 6 0 13 -4 16 -10z m2651
-17 c-4 -16 -3 -23 1 -16 6 8 15 6 33 -9 14 -11 19 -17 11 -13 -7 4 -17 2 -22
-6 -5 -8 -9 -9 -9 -3 0 7 -30 11 -85 10 -63 -1 -85 2 -85 12 0 9 13 12 49 8
42 -4 52 -1 72 20 30 32 43 30 35 -3z m-1056 -3 c0 -5 -2 -10 -4 -10 -3 0 -8
5 -11 10 -3 6 -1 10 4 10 6 0 11 -4 11 -10z m890 -15 c0 -16 -64 -22 -74 -6
-8 12 -1 16 38 18 26 2 36 -1 36 -12z m-2549 -12 c8 -10 9 -14 2 -10 -6 4 -14
3 -18 -3 -3 -5 -13 -10 -21 -10 -12 0 -12 3 -2 20 16 24 22 25 39 3z m1049 7
c0 -5 -5 -10 -11 -10 -5 0 -7 5 -4 10 3 6 8 10 11 10 2 0 4 -4 4 -10z m547 4
c-3 -3 -12 -4 -19 -1 -8 3 -5 6 6 6 11 1 17 -2 13 -5z m1228 -14 c-3 -5 -16
-10 -28 -10 -18 0 -19 2 -7 10 20 13 43 13 35 0z m140 0 c-3 -5 -15 -10 -26
-10 -10 0 -19 5 -19 10 0 6 12 10 26 10 14 0 23 -4 19 -10z m1566 -14 c35 -13
80 -27 99 -31 19 -4 58 -17 85 -30 28 -12 59 -25 70 -28 31 -9 158 -56 175
-65 8 -5 60 -33 115 -62 134 -71 234 -130 242 -143 4 -7 0 -8 -13 -2 -10 4
-29 8 -41 8 -16 -1 -23 5 -23 18 0 15 -7 19 -34 19 -19 0 -40 2 -48 5 -7 3
-20 0 -28 -5 -13 -9 -13 -11 0 -20 11 -7 11 -10 2 -10 -7 0 -15 7 -18 15 -9
22 -27 18 -54 -10 -22 -23 -78 -37 -65 -15 3 5 12 7 19 4 8 -3 17 -1 21 5 3 7
-2 11 -14 11 -12 0 -21 5 -21 10 0 6 6 10 14 10 7 0 16 9 19 20 4 15 0 20 -14
20 -10 0 -19 5 -19 11 0 6 8 8 18 5 21 -7 54 13 35 21 -7 2 -13 11 -13 18 0
17 -47 24 -77 11 -25 -10 -53 6 -53 30 0 10 -7 13 -25 8 -19 -5 -25 -2 -25 10
0 9 -6 16 -13 16 -7 0 -30 9 -52 20 -22 11 -45 20 -52 20 -7 0 -12 6 -10 13 1
8 -13 13 -40 15 -24 2 -43 7 -43 11 0 5 -19 12 -42 16 -47 9 -46 8 -69 19 -9
4 -20 6 -25 4 -16 -4 -54 22 -54 37 0 19 -4 19 71 -9z m-4471 -10 c0 -3 -4 -8
-10 -11 -5 -3 -10 -1 -10 4 0 6 5 11 10 11 6 0 10 -2 10 -4z m1610 -11 c11
-13 10 -14 -4 -9 -9 3 -16 10 -16 15 0 13 6 11 20 -6z m-1475 -44 c-3 -6 -14
-11 -23 -11 -13 0 -13 2 4 14 21 15 30 14 19 -3z m445 -41 c0 -5 -2 -10 -4
-10 -3 0 -8 5 -11 10 -3 6 -1 10 4 10 6 0 11 -4 11 -10z m1067 -36 c-3 -3 -12
-4 -19 -1 -8 3 -5 6 6 6 11 1 17 -2 13 -5z m-2197 -14 c0 -5 -2 -10 -4 -10 -3
0 -8 5 -11 10 -3 6 -1 10 4 10 6 0 11 -4 11 -10z m2667 -22 c-3 -8 -6 -5 -6 6
-1 11 2 17 5 13 3 -3 4 -12 1 -19z m-331 -6 c-10 -2 -22 0 -28 6 -6 6 0 7 19
4 21 -5 23 -7 9 -10z m-2025 -16 c20 -17 26 -30 22 -49 -4 -18 0 -29 10 -33
19 -7 11 -34 -10 -34 -8 0 -17 9 -20 19 -3 11 -11 22 -19 25 -8 3 -14 14 -14
24 0 10 -7 27 -15 38 -8 10 -15 22 -15 27 0 15 36 5 61 -17z m809 16 c0 -13
-12 -22 -22 -16 -10 6 -1 24 13 24 5 0 9 -4 9 -8z m-1158 -14 c-9 -9 -15 -9
-24 0 -9 9 -7 12 12 12 19 0 21 -3 12 -12z m2768 2 c0 -5 -2 -10 -4 -10 -3 0
-8 5 -11 10 -3 6 -1 10 4 10 6 0 11 -4 11 -10z m2655 0 c3 -5 1 -10 -4 -10 -6
0 -11 5 -11 10 0 6 2 10 4 10 3 0 8 -4 11 -10z m-4235 -20 c0 -5 -7 -10 -16
-10 -8 0 -12 5 -9 10 3 6 10 10 16 10 5 0 9 -4 9 -10z m408 -61 c2 -14 -4 -31
-12 -39 -20 -16 -20 -30 0 -30 11 0 14 -6 9 -21 -6 -19 -4 -21 14 -16 18 4 19
2 10 -14 -10 -20 -26 -23 -53 -13 -17 7 -22 34 -6 34 6 0 10 -5 10 -12 0 -6 2
-9 5 -6 11 11 -26 78 -43 78 -13 0 -14 2 -4 9 8 4 13 12 12 17 -4 27 10 45 32
42 16 -2 24 -11 26 -29z m-1628 11 c0 -5 -5 -10 -11 -10 -5 0 -7 5 -4 10 3 6
8 10 11 10 2 0 4 -4 4 -10z m80 6 c0 -2 -15 -6 -34 -8 -19 -2 -32 0 -30 4 5 8
64 12 64 4z m1467 -32 c-3 -3 -12 -4 -19 -1 -8 3 -5 6 6 6 11 1 17 -2 13 -5z
m-1070 -86 c-3 -7 -5 -2 -5 12 0 14 2 19 5 13 2 -7 2 -19 0 -25z m1093 17 c0
-8 -4 -15 -10 -15 -5 0 -10 7 -10 15 0 8 5 15 10 15 6 0 10 -7 10 -15z m-1122
-15 c10 -17 10 -20 -3 -20 -8 0 -15 2 -15 4 0 2 -3 11 -6 20 -9 23 9 20 24 -4z
m-575 3 c-7 -2 -19 -2 -25 0 -7 3 -2 5 12 5 14 0 19 -2 13 -5z m1657 -47 c0
-3 -4 -8 -10 -11 -5 -3 -10 -1 -10 4 0 6 5 11 10 11 6 0 10 -2 10 -4z m60 -16
c0 -5 -7 -10 -15 -10 -8 0 -15 5 -15 10 0 6 7 10 15 10 8 0 15 -4 15 -10z
m-1105 -20 c3 -5 1 -10 -4 -10 -6 0 -11 5 -11 10 0 6 2 10 4 10 3 0 8 -4 11
-10z m1127 -8 c-7 -2 -12 -10 -12 -17 0 -13 -24 -27 -33 -19 -8 8 37 51 48 45
5 -2 4 -6 -3 -9z m3858 -7 c-7 -9 -15 -13 -17 -11 -7 7 7 26 19 26 6 0 6 -6
-2 -15z m47 9 c-3 -3 -12 -4 -19 -1 -8 3 -5 6 6 6 11 1 17 -2 13 -5z m-5802
-54 c-3 -5 -14 -10 -23 -10 -15 0 -15 2 -2 10 20 13 33 13 25 0z m1925 0 c0
-5 -4 -10 -10 -10 -5 0 -10 5 -10 10 0 6 5 10 10 10 6 0 10 -4 10 -10z m-1086
-16 c3 -8 2 -12 -4 -9 -6 3 -10 10 -10 16 0 14 7 11 14 -7z m1046 6 c0 -5 -2
-10 -4 -10 -3 0 -8 5 -11 10 -3 6 -1 10 4 10 6 0 11 -4 11 -10z m43 -27 c-7
-2 -19 -2 -25 0 -7 3 -2 5 12 5 14 0 19 -2 13 -5z m41 -23 c-5 -4 -20 -11 -34
-15 -23 -7 -23 -7 5 18 17 14 32 21 34 15 2 -5 -1 -13 -5 -18z m-1937 -33 c-4
-14 -32 -21 -53 -13 -24 9 -8 23 26 24 20 0 30 -4 27 -11z m1858 -7 c3 -5 -1
-10 -10 -10 -9 0 -13 5 -10 10 3 6 8 10 10 10 2 0 7 -4 10 -10z m45 -44 c0 -8
6 -17 13 -19 8 -4 7 -6 -3 -6 -23 -1 -43 15 -36 28 10 16 26 14 26 -3z m-1994
-31 c10 -8 14 -15 8 -15 -5 0 -19 7 -30 15 -10 8 -14 15 -8 15 5 0 19 -7 30
-15z m1961 2 c12 5 15 2 10 -10 -3 -8 -1 -18 6 -21 7 -2 2 -5 -10 -5 -14 -1
-23 5 -23 14 0 8 -5 15 -11 15 -5 0 -7 5 -3 12 6 9 9 9 11 1 3 -7 12 -9 20 -6z
m839 -68 c1 -29 -2 -37 -9 -30 -19 19 -19 71 0 71 5 0 9 -18 9 -41z m-2831 -9
c-3 -5 -14 -10 -23 -10 -15 0 -15 2 -2 10 20 13 33 13 25 0z m1992 4 c-3 -3
-12 -4 -19 -1 -8 3 -5 6 6 6 11 1 17 -2 13 -5z m28 -41 c-21 -14 -45 -17 -45
-5 0 10 43 29 54 24 5 -3 1 -11 -9 -19z m-2035 -23 c0 -5 -4 -10 -10 -10 -5 0
-10 5 -10 10 0 6 5 10 10 10 6 0 10 -4 10 -10z m2870 -10 c0 -5 -2 -10 -4 -10
-3 0 -8 5 -11 10 -3 6 -1 10 4 10 6 0 11 -4 11 -10z m-840 -20 c0 -5 -2 -10
-4 -10 -3 0 -8 5 -11 10 -3 6 -1 10 4 10 6 0 11 -4 11 -10z m-2060 -9 c0 -14
-18 -23 -31 -15 -8 4 -7 9 2 15 18 11 29 11 29 0z m3103 2 c-7 -2 -19 -2 -25
0 -7 3 -2 5 12 5 14 0 19 -2 13 -5z m-38 -33 c-3 -5 -14 -10 -23 -9 -14 0 -13
2 3 9 27 11 27 11 20 0z m-3071 -31 c-3 -5 -10 -7 -15 -3 -5 3 -7 10 -3 15 3
5 10 7 15 3 5 -3 7 -10 3 -15z m3143 5 c-3 -3 -12 -4 -19 -1 -8 3 -5 6 6 6 11
1 17 -2 13 -5z m-2017 -34 c0 -5 -4 -10 -10 -10 -5 0 -10 5 -10 10 0 6 5 10
10 10 6 0 10 -4 10 -10z m-1143 -36 c-9 -9 -28 6 -21 18 4 6 10 6 17 -1 6 -6
8 -13 4 -17z m4860 -66 c-3 -8 -6 -5 -6 6 -1 11 2 17 5 13 3 -3 4 -12 1 -19z
m-4787 -8 c0 -5 -5 -10 -11 -10 -5 0 -7 5 -4 10 3 6 8 10 11 10 2 0 4 -4 4
-10z m2734 -5 c18 -18 15 -47 -15 -143 -11 -35 -17 -67 -14 -72 3 -4 1 -10 -5
-12 -5 -1 -11 -14 -12 -28 -2 -14 -11 -31 -20 -38 -10 -7 -18 -23 -18 -35 1
-21 2 -20 25 8 14 17 25 38 25 48 0 30 47 69 78 65 38 -4 36 -38 -3 -57 -16
-8 -24 -16 -18 -18 21 -7 67 36 81 74 13 40 10 52 -11 34 -8 -6 -25 -10 -39
-9 -19 2 -25 7 -24 23 0 12 6 22 11 23 75 8 97 17 112 43 9 16 23 31 31 34 21
8 43 -15 37 -36 -6 -17 0 -19 74 -19 44 0 92 -5 106 -10 23 -9 25 -13 14 -26
-11 -13 -29 -14 -119 -9 -110 8 -115 6 -124 -35 -1 -3 -9 -17 -19 -31 -10 -15
-19 -47 -20 -73 -2 -25 -6 -49 -10 -52 -13 -13 -7 -33 8 -28 23 9 19 -33 -4
-45 -20 -11 -32 -3 -44 29 -4 12 -6 12 -6 -2 -1 -19 -56 -68 -77 -68 -34 0
-35 84 -1 128 22 28 -6 9 -34 -23 -33 -37 -59 -44 -78 -21 -6 7 -22 11 -36 8
-14 -2 -32 1 -40 8 -12 10 -19 10 -27 2 -18 -18 -66 -14 -79 6 -8 12 -20 17
-34 14 -12 -2 -29 3 -38 12 -20 21 -26 20 -53 -5 -16 -15 -30 -20 -48 -15 -32
8 -41 38 -21 76 19 38 65 42 89 8 l16 -22 22 21 c31 28 54 34 82 23 25 -9 42
-42 37 -72 -2 -16 2 -17 25 -8 14 6 35 22 46 35 11 14 26 25 33 25 16 0 19 9
39 118 17 89 36 135 63 151 10 6 19 11 20 11 1 0 8 -7 17 -15z m-2684 -5 c0
-5 -4 -10 -9 -10 -6 0 -13 5 -16 10 -3 6 1 10 9 10 9 0 16 -4 16 -10z m4720 6
c0 -2 -7 -7 -16 -10 -8 -3 -12 -2 -9 4 6 10 25 14 25 6z m75 -56 c3 -5 -1 -10
-9 -10 -9 0 -16 5 -16 10 0 6 4 10 9 10 6 0 13 -4 16 -10z m-5039 -32 c-9 -12
-16 -30 -16 -40 0 -10 -7 -18 -15 -18 -8 0 -15 7 -15 15 0 8 5 15 11 15 5 0 7
5 4 10 -5 8 -11 7 -21 -1 -8 -6 -18 -9 -22 -5 -11 12 37 46 65 46 23 0 23 -1
9 -22z m2429 8 c42 -18 53 -52 31 -93 -10 -21 -35 -39 -87 -63 l-73 -33 42
-38 c24 -20 38 -40 33 -43 -15 -10 -63 4 -90 26 -24 18 -25 18 -35 1 -22 -38
-35 -88 -29 -116 5 -26 4 -28 -18 -25 -22 3 -24 8 -23 53 0 28 10 85 22 127
27 94 27 91 2 83 -17 -5 -20 -2 -20 24 0 22 7 34 29 47 17 10 28 21 25 25 -6
11 75 37 119 38 21 1 53 -5 72 -13z m-218 -42 c-3 -3 -12 -4 -19 -1 -8 3 -5 6
6 6 11 1 17 -2 13 -5z m-2187 -24 c0 -5 -4 -10 -10 -10 -5 0 -10 5 -10 10 0 6
5 10 10 10 6 0 10 -4 10 -10z m3679 -4 c8 -10 3 -34 -25 -102 -36 -90 -74
-197 -71 -200 1 -1 41 -5 88 -8 77 -6 87 -5 93 11 3 10 9 25 12 33 5 12 4 13
-7 3 -7 -7 -21 -13 -32 -13 -10 0 -15 -4 -12 -10 3 -5 1 -10 -4 -10 -6 0 -11
5 -11 10 0 6 -6 10 -14 10 -22 0 -27 29 -11 63 36 75 47 88 68 85 28 -4 34
-28 9 -35 -14 -3 -21 -15 -24 -39 -2 -19 -2 -34 2 -34 14 0 69 44 112 90 42
46 74 61 91 43 4 -3 -16 -30 -43 -59 -48 -50 -64 -82 -37 -70 6 2 30 10 52 17
22 7 51 23 66 36 49 44 108 17 79 -37 -13 -24 -7 -25 25 -4 25 16 51 11 39 -8
-12 -20 -98 -68 -121 -68 -15 0 -30 10 -41 29 -17 28 -19 28 -45 15 -22 -12
-27 -22 -27 -50 0 -63 -52 -154 -88 -154 -30 0 -52 32 -52 75 0 34 -4 44 -20
48 -11 3 -23 1 -26 -4 -3 -5 -43 -9 -90 -9 -80 0 -84 1 -84 23 0 34 24 113 64
210 55 135 61 143 85 113z m-3731 -39 c7 -8 7 -18 2 -27 -10 -17 -15 -13 -24
18 -8 24 5 30 22 9z m4550 -28 c2 -25 -3 -40 -18 -54 -28 -26 -49 -7 -32 30 9
20 9 25 -2 25 -23 0 -65 -40 -100 -93 -55 -87 -71 -158 -40 -175 19 -11 106
10 112 27 4 12 78 51 97 51 7 0 17 11 23 25 9 20 19 25 47 25 19 0 35 -4 35
-10 0 -5 11 -10 25 -10 34 0 32 -16 -5 -35 -16 -8 -33 -22 -38 -31 -12 -21
-63 -22 -76 -1 -8 12 -17 8 -59 -25 -70 -55 -108 -69 -152 -57 -38 11 -74 40
-76 62 0 6 -2 21 -4 31 -4 21 23 97 39 108 5 4 24 31 41 60 36 62 81 90 140
86 38 -3 40 -5 43 -39z m-1314 15 c20 -20 20 -33 -1 -56 -9 -10 -12 -18 -7
-18 17 1 43 27 53 53 11 28 42 36 70 18 12 -8 13 -14 3 -36 -10 -21 -9 -30 5
-51 14 -22 15 -31 5 -57 -6 -17 -10 -33 -7 -35 2 -3 30 16 61 42 57 47 83 52
62 13 -21 -40 -97 -97 -129 -97 -26 0 -42 35 -34 79 10 58 -12 70 -68 37 -55
-32 -102 -34 -118 -5 -17 32 14 105 49 118 37 13 39 13 56 -5z m2426 -34 c0
-5 -5 -10 -11 -10 -5 0 -7 5 -4 10 3 6 8 10 11 10 2 0 4 -4 4 -10z m-5720 -72
c0 -7 -5 -20 -10 -28 -8 -12 -10 -9 -10 13 0 15 5 27 10 27 6 0 10 -6 10 -12z
m190 2 c0 -5 -4 -10 -10 -10 -5 0 -10 5 -10 10 0 6 5 10 10 10 6 0 10 -4 10
-10z m4840 -80 c0 -5 -5 -10 -11 -10 -5 0 -7 5 -4 10 3 6 8 10 11 10 2 0 4 -4
4 -10z m-4890 -29 c0 -5 -6 -14 -14 -20 -12 -10 -13 -8 -9 8 5 21 23 30 23 12z
m3130 -1 c0 -5 -5 -10 -11 -10 -5 0 -7 5 -4 10 3 6 8 10 11 10 2 0 4 -4 4 -10z
m-3295 -59 c-4 -13 0 -23 12 -29 12 -7 14 -14 7 -24 -13 -19 -11 -63 3 -61 8
2 10 -4 6 -15 -8 -20 -24 -33 -35 -26 -8 5 -9 153 -1 167 9 14 14 7 8 -12z
m5717 -73 c-7 -7 -12 -8 -12 -2 0 14 12 26 19 19 2 -3 -1 -11 -7 -17z m-5416
-95 c-4 -5 -14 1 -22 11 -21 30 -17 39 8 16 12 -11 18 -23 14 -27z m4684 43
c0 -3 -4 -8 -10 -11 -5 -3 -10 -1 -10 4 0 6 5 11 10 11 6 0 10 -2 10 -4z
m-4628 -108 c-8 -8 -9 -4 -5 13 4 13 8 18 11 10 2 -7 -1 -18 -6 -23z m-337 11
c-4 -5 1 -19 11 -30 15 -17 15 -19 1 -19 -9 0 -21 -8 -26 -17 -8 -14 -10 -8
-11 30 0 36 4 47 16 47 8 0 12 -5 9 -11z m275 1 c0 -5 -4 -10 -9 -10 -6 0 -13
5 -16 10 -3 6 1 10 9 10 9 0 16 -4 16 -10z m3007 4 c-3 -3 -12 -4 -19 -1 -8 3
-5 6 6 6 11 1 17 -2 13 -5z m-2897 -30 c0 -8 -4 -12 -10 -9 -5 3 -10 10 -10
16 0 5 5 9 10 9 6 0 10 -7 10 -16z m0 -39 c0 -8 -4 -15 -10 -15 -5 0 -10 7
-10 15 0 8 5 15 10 15 6 0 10 -7 10 -15z m50 -35 c0 -22 -4 -40 -10 -40 -12 0
-24 45 -16 65 11 29 26 15 26 -25z m-106 5 c10 -7 16 -18 15 -23 -2 -5 -15 2
-29 14 -27 26 -17 32 14 9z m-144 -5 c0 -5 -4 -10 -10 -10 -5 0 -10 5 -10 10
0 6 5 10 10 10 6 0 10 -4 10 -10z m-210 -30 c0 -5 -4 -10 -10 -10 -5 0 -10 5
-10 10 0 6 5 10 10 10 6 0 10 -4 10 -10z m740 0 c0 -5 -4 -10 -10 -10 -5 0
-10 5 -10 10 0 6 5 10 10 10 6 0 10 -4 10 -10z m-210 -30 c0 -5 -7 -10 -15
-10 -8 0 -15 5 -15 10 0 6 7 10 15 10 8 0 15 -4 15 -10z m254 1 c3 -5 -1 -12
-10 -15 -25 -10 -34 -7 -34 9 0 16 35 21 44 6z m1523 -17 c-3 -3 -12 -4 -19
-1 -8 3 -5 6 6 6 11 1 17 -2 13 -5z m-2267 -33 c-1 -19 -27 -57 -35 -49 -3 2
-2 18 1 35 6 30 34 42 34 14z m670 -30 c0 -21 -13 -41 -26 -41 -17 0 -18 22
-2 38 14 14 28 16 28 3z m-110 -31 c0 -5 -4 -10 -10 -10 -5 0 -10 5 -10 10 0
6 5 10 10 10 6 0 10 -4 10 -10z m-560 -6 c0 -13 -21 -44 -30 -44 -15 0 -12 37
3 43 17 8 27 8 27 1z m30 -4 c0 -5 -5 -10 -11 -10 -5 0 -7 5 -4 10 3 6 8 10
11 10 2 0 4 -4 4 -10z m347 -16 c-3 -3 -12 -4 -19 -1 -8 3 -5 6 6 6 11 1 17
-2 13 -5z m-448 -64 c5 0 14 7 21 15 23 27 39 -1 36 -61 -2 -45 0 -55 16 -60
22 -7 22 -14 4 -39 -14 -19 -16 -19 -57 14 l-42 34 6 -41 c4 -31 2 -42 -8 -42
-20 0 -24 24 -13 69 7 26 15 40 23 38 8 -4 10 7 4 41 -4 26 -7 56 -7 67 1 11
3 8 5 -7 2 -16 8 -28 12 -28z m911 40 c0 -5 -5 -10 -11 -10 -5 0 -7 5 -4 10 3
6 8 10 11 10 2 0 4 -4 4 -10z m-40 -20 c0 -5 -4 -10 -9 -10 -6 0 -13 5 -16 10
-3 6 1 10 9 10 9 0 16 -4 16 -10z m-85 -10 c3 -5 -1 -10 -9 -10 -9 0 -16 5
-16 10 0 6 4 10 9 10 6 0 13 -4 16 -10z m4225 -10 c0 -5 -4 -10 -10 -10 -5 0
-10 5 -10 10 0 6 5 10 10 10 6 0 10 -4 10 -10z m-4882 -12 c-5 -15 -58 -24
-58 -9 0 9 20 17 48 20 8 0 12 -5 10 -11z m3279 -14 c-3 -3 -12 -4 -19 -1 -8
3 -5 6 6 6 11 1 17 -2 13 -5z m-2517 -34 c0 -5 -4 -10 -10 -10 -5 0 -10 5 -10
10 0 6 5 10 10 10 6 0 10 -4 10 -10z m-868 -117 c-10 -4 -10 -8 -1 -19 9 -11
7 -14 -12 -14 -13 0 -33 -12 -46 -27 -21 -26 -22 -27 -23 -7 0 27 53 72 85 72
6 0 4 -2 -3 -5z m953 -22 c-8 -13 -35 -15 -35 -2 0 5 8 11 18 13 21 5 26 2 17
-11z m-903 -58 c7 -74 -21 -109 -50 -63 -10 16 -16 18 -32 10 -25 -13 -30 -13
-30 5 0 8 5 15 10 15 6 0 10 7 10 15 0 8 6 15 14 15 8 0 13 8 12 18 -1 12 5
16 22 15 12 -2 22 2 22 7 0 6 4 10 9 10 5 0 11 -21 13 -47z m-122 -32 c0 -6
-4 -13 -10 -16 -5 -3 -10 1 -10 9 0 9 5 16 10 16 6 0 10 -4 10 -9z m150 -46
c0 -8 -4 -15 -10 -15 -5 0 -7 7 -4 15 4 8 8 15 10 15 2 0 4 -7 4 -15z m20 -45
c0 -5 -5 -10 -11 -10 -5 0 -7 5 -4 10 3 6 8 10 11 10 2 0 4 -4 4 -10z m-150
-14 c0 -7 -6 -18 -13 -24 -10 -8 -13 -5 -15 14 -1 15 3 24 13 24 8 0 15 -6 15
-14z m100 -25 c0 -5 9 -11 20 -14 25 -7 26 -27 1 -27 -10 0 -26 11 -35 25 -14
22 -15 25 -1 25 8 0 15 -4 15 -9z m-90 -30 c0 -15 -16 -22 -34 -15 -25 9 -19
24 9 24 14 0 25 -4 25 -9z m30 -42 c0 -6 -4 -7 -10 -4 -5 3 -10 11 -10 16 0 6
5 7 10 4 6 -3 10 -11 10 -16z m-56 -32 c-3 -9 -10 -17 -15 -17 -12 0 -11 17 1
25 6 4 7 12 4 18 -5 9 -4 9 5 1 6 -6 9 -18 5 -27z m181 3 c3 -5 -1 -10 -10
-10 -9 0 -13 5 -10 10 3 6 8 10 10 10 2 0 7 -4 10 -10z m-100 -60 c0 -36 -22
-35 -23 0 0 20 4 30 11 27 7 -2 12 -14 12 -27z m52 8 c-3 -8 -6 -5 -6 6 -1 11
2 17 5 13 3 -3 4 -12 1 -19z m363 -8 c8 -5 11 -10 5 -10 -5 0 -17 5 -25 10 -8
5 -10 10 -5 10 6 0 17 -5 25 -10z m1581 -32 c48 -13 94 -32 104 -41 9 -9 21
-17 26 -17 5 0 9 -7 9 -15 0 -19 -12 -19 -58 1 -45 20 -65 23 -162 27 -41 2
-93 9 -115 16 -22 7 -58 16 -80 21 -22 4 -31 9 -20 10 13 2 8 5 -15 11 l-35 8
35 -4 c19 -1 46 -6 59 -11 17 -5 22 -4 17 4 -9 15 26 16 40 2 7 -7 17 -5 30 5
23 18 50 15 165 -17z m-1921 -48 c-19 -13 -30 -13 -30 0 0 6 10 10 23 10 18 0
19 -2 7 -10z m1836 -9 c104 -8 138 -24 160 -76 24 -59 13 -163 -20 -187 -11
-7 -34 0 -56 17 -8 7 -23 15 -32 18 -15 5 -16 2 -8 -19 7 -16 6 -23 0 -19 -13
8 -23 -37 -18 -85 3 -31 0 -40 -12 -40 -9 0 -21 -5 -28 -12 -8 -8 -12 -8 -12
-1 0 11 -31 18 -120 30 -25 3 -48 10 -52 16 -4 6 -36 11 -72 12 -39 0 -67 5
-70 11 -15 40 55 164 93 164 27 0 29 8 15 50 -16 46 -9 71 32 114 24 25 31 28
68 21 23 -3 82 -10 132 -14z m-1989 3 c-3 -3 -12 -4 -19 -1 -8 3 -5 6 6 6 11
1 17 -2 13 -5z m628 -124 c3 -5 1 -10 -4 -10 -6 0 -11 5 -11 10 0 6 2 10 4 10
3 0 8 -4 11 -10z m69 2 c7 -12 -6 -27 -29 -30 -10 -2 -25 -11 -32 -20 -13 -18
-17 -13 -7 12 3 9 12 16 19 16 7 0 15 7 19 15 6 16 22 20 30 7z m-587 -34 c-3
-8 -6 -5 -6 6 -1 11 2 17 5 13 3 -3 4 -12 1 -19z m473 -8 c0 -5 -2 -10 -4 -10
-3 0 -8 5 -11 10 -3 6 -1 10 4 10 6 0 11 -4 11 -10z m-106 -11 c10 16 46 0 46
-20 0 -23 -7 -23 -54 -4 -20 9 -34 20 -31 26 5 7 11 6 20 -1 8 -7 15 -7 19 -1z
m-54 -19 c0 -5 -7 -10 -15 -10 -8 0 -15 5 -15 10 0 6 7 10 15 10 8 0 15 -4 15
-10z m157 -16 c-3 -3 -12 -4 -19 -1 -8 3 -5 6 6 6 11 1 17 -2 13 -5z m327 -29
c-7 -16 -24 -21 -24 -6 0 8 7 13 27 20 1 1 0 -6 -3 -14z m2570 3 c-5 -7 -3 -8
5 -3 7 4 22 -2 37 -16 l24 -23 -21 -22 c-13 -14 -17 -24 -10 -29 16 -9 13 -25
-4 -25 -8 0 -15 -4 -15 -10 0 -5 12 -10 26 -10 19 0 25 4 20 15 -3 8 -1 15 5
15 7 0 9 -10 5 -24 -4 -15 -1 -26 7 -30 6 -3 0 -3 -16 1 -22 4 -26 2 -21 -11
4 -10 1 -16 -9 -16 -8 0 -17 7 -21 15 -3 8 -11 15 -17 15 -11 0 -9 -24 6 -65
5 -14 4 -16 -3 -7 -5 8 -13 13 -17 12 -4 -1 -13 9 -19 21 -14 28 -36 36 -36
13 0 -14 -3 -15 -12 -6 -18 18 -38 14 -38 -8 0 -13 -7 -20 -20 -20 -11 0 -20
7 -20 15 0 8 -9 15 -20 15 -11 0 -23 -7 -26 -15 -4 -8 -13 -15 -21 -15 -9 0
-13 -6 -10 -13 5 -15 5 -15 -65 -23 l-48 -6 0 -39 c0 -43 -26 -57 -32 -17 -3
19 -9 22 -43 20 -22 0 -56 -3 -75 -6 -19 -2 -50 -2 -67 1 -28 4 -31 8 -23 23
6 10 10 28 10 39 0 12 5 21 10 21 6 0 10 7 10 15 0 8 -7 15 -16 15 -11 0 -14
6 -9 21 5 16 3 20 -6 17 -8 -3 -14 -15 -14 -28 0 -28 -20 -37 -40 -20 -8 7
-21 10 -29 7 -14 -6 -32 21 -21 31 5 5 52 14 170 32 33 5 90 10 127 10 66 0
110 12 136 37 10 9 19 10 33 3 18 -10 23 -6 20 14 -2 12 35 38 83 58 48 20
141 24 130 6z m989 -25 c17 -16 29 -18 50 -12 27 7 94 -5 111 -22 6 -5 15 -4
23 2 7 7 14 9 14 5 1 -3 2 -12 3 -18 1 -7 7 -12 14 -10 15 3 16 -20 2 -34 -7
-7 -8 -25 -2 -50 4 -21 6 -47 4 -56 -7 -34 -21 -17 -32 40 -7 31 -21 65 -31
75 -10 10 -19 21 -19 25 0 4 -20 7 -45 7 -43 0 -56 -7 -36 -20 18 -11 41 -68
41 -102 0 -18 5 -33 11 -33 6 0 8 -9 4 -20 -3 -11 -2 -20 3 -20 17 0 36 -60
23 -73 -6 -6 -11 -24 -11 -39 0 -15 -5 -28 -11 -28 -5 0 -7 -5 -4 -10 4 -6 11
-8 16 -5 5 4 9 1 9 -4 0 -6 -11 -11 -24 -11 -20 0 -34 14 -41 40 -15 63 -23
69 -79 61 -17 -2 -30 -11 -33 -22 -4 -13 -15 -19 -37 -20 l-31 -1 30 -8 c17
-4 24 -8 18 -9 -7 0 -13 -6 -13 -11 0 -6 11 -3 25 7 13 10 23 23 20 30 -7 20
17 27 30 10 7 -10 21 -17 31 -18 10 -1 1 -5 -21 -10 -22 -5 -43 -16 -48 -24
-4 -8 -22 -15 -38 -15 -17 0 -28 4 -25 9 3 5 -18 8 -48 7 -39 -1 -52 2 -49 12
3 6 1 12 -4 12 -13 0 -12 33 1 42 7 5 6 8 -4 9 -10 0 -8 3 5 9 17 7 17 9 3 9
-10 1 -18 7 -18 15 0 8 -4 18 -10 21 -6 4 -7 -5 -4 -24 5 -23 2 -31 -16 -41
-18 -9 -24 -9 -30 0 -9 14 -40 7 -40 -9 0 -5 15 -11 33 -14 l32 -3 -31 -8
c-25 -6 -31 -12 -26 -28 4 -18 3 -19 -15 -8 -14 9 -18 20 -15 41 4 25 2 27
-19 22 -14 -4 -20 -2 -16 5 4 5 1 13 -5 16 -7 3 -1 4 14 1 15 -3 30 -1 33 5 7
11 0 12 -70 10 -27 -1 -51 -6 -53 -11 -2 -5 -10 -9 -17 -9 -7 0 -15 -9 -18
-20 -8 -31 -24 -24 -24 11 0 17 -6 35 -14 40 -12 8 -12 10 0 18 16 10 6 31
-14 31 -7 0 -17 9 -20 20 -3 11 -11 20 -16 20 -5 0 -9 6 -9 14 0 7 -10 21 -22
29 -19 13 -20 16 -5 16 10 1 17 9 17 21 0 19 -5 21 -73 35 -31 6 -12 -19 24
-32 33 -12 33 -12 6 -12 -26 -1 -94 47 -72 51 6 0 24 2 40 4 17 1 80 11 140
22 61 11 165 25 233 31 67 7 137 19 155 27 42 19 112 12 140 -13z m1287 12 c0
-8 -7 -15 -15 -15 -16 0 -20 12 -8 23 11 12 23 8 23 -8z m-5690 -21 c0 -8 -5
-12 -10 -9 -6 4 -8 11 -5 16 9 14 15 11 15 -7z m773 -19 c-3 -9 -8 -14 -10
-11 -3 3 -2 9 2 15 9 16 15 13 8 -4z m-803 -44 c0 -9 -24 -21 -42 -21 -6 0 -6
6 2 15 14 16 40 20 40 6z m3700 -1 c0 -5 -4 -10 -10 -10 -5 0 -10 5 -10 10 0
6 5 10 10 10 6 0 10 -4 10 -10z m-3000 -20 c0 -5 -9 -10 -21 -10 -11 0 -17 5
-14 10 3 6 13 10 21 10 8 0 14 -4 14 -10z m4013 -33 c8 -18 20 -66 27 -107 10
-62 9 -90 -4 -162 -8 -49 -20 -96 -26 -105 -11 -19 -10 -11 5 60 3 15 1 27 -5
27 -9 0 -9 78 0 105 8 24 -13 185 -26 196 -18 15 -18 30 0 23 8 -3 21 -20 29
-37z m-3933 23 c0 -5 -7 -10 -16 -10 -8 0 -12 5 -9 10 3 6 10 10 16 10 5 0 9
-4 9 -10z m2820 -12 c0 -13 -23 -5 -28 10 -2 7 2 10 12 6 9 -3 16 -11 16 -16z
m-2775 2 c3 -6 -1 -7 -9 -4 -18 7 -21 14 -7 14 6 0 13 -4 16 -10z m-115 -20
c0 -21 -15 -27 -25 -10 -7 12 2 30 16 30 5 0 9 -9 9 -20z m730 12 c0 -15 -54
-74 -82 -88 -15 -8 -28 -21 -28 -29 0 -18 -17 -28 -32 -19 -8 5 -7 10 4 18 8
6 23 26 32 45 13 24 21 30 29 22 17 -17 29 -13 22 8 -3 11 1 26 10 35 17 17
45 22 45 8z m658 -18 c6 -1 19 -2 27 -2 8 -1 15 -10 15 -20 0 -15 -6 -18 -30
-14 -16 2 -30 8 -30 12 0 5 -3 17 -6 27 -3 10 -2 14 3 8 4 -5 14 -10 21 -11z
m598 0 c-4 -9 -2 -22 4 -29 12 -15 3 -45 -14 -45 -7 0 -22 -9 -34 -20 l-22
-21 -2 33 c-3 81 4 98 43 98 25 0 30 -3 25 -16z m-1076 -17 c0 -7 -4 -6 -10 3
-8 12 -10 12 -10 1 0 -8 -3 -12 -6 -8 -9 9 6 28 17 22 5 -4 9 -12 9 -18z
m-1350 -6 c0 -5 -9 -11 -19 -14 -14 -3 -18 -1 -14 9 6 15 33 19 33 5z m900 5
c0 -2 -8 -10 -17 -17 -16 -13 -17 -12 -4 4 13 16 21 21 21 13z m727 -26 c13 0
13 -3 3 -15 -7 -8 -8 -15 -3 -15 11 0 11 -29 0 -47 -4 -7 0 -16 10 -22 16 -9
14 -11 -9 -12 -63 -5 -63 -5 -60 19 2 16 -4 25 -21 31 -37 14 -40 36 -6 37 16
1 29 -4 29 -10 0 -6 8 -20 16 -31 15 -19 16 -19 14 10 -3 46 2 93 7 73 2 -10
11 -18 20 -18z m-1877 11 c0 -6 -4 -13 -10 -16 -5 -3 -10 1 -10 9 0 9 5 16 10
16 6 0 10 -4 10 -9z m1567 -26 c-4 -8 -14 -15 -23 -15 -16 0 -16 2 1 20 20 22
31 20 22 -5z m614 8 c1 -10 1 -21 0 -25 0 -5 8 -8 19 -8 11 0 20 6 20 13 0 6
14 18 32 26 28 13 32 12 45 -4 17 -25 17 -29 -8 -50 -17 -16 -25 -17 -49 -8
-24 9 -32 8 -42 -4 -11 -13 -14 -13 -28 4 -9 11 -22 22 -30 26 -10 3 -6 6 9 6
18 1 22 5 18 21 -3 11 -1 20 4 20 5 0 10 -8 10 -17z m250 -3 c19 0 43 -6 53
-13 17 -13 17 -14 1 -30 -15 -15 -18 -15 -31 -2 -19 18 -38 20 -32 3 3 -7 -3
-22 -13 -32 -19 -19 -19 -19 -19 0 0 11 5 25 12 32 7 7 8 12 3 12 -6 0 -3 5 5
10 12 8 10 10 -9 10 -13 0 -22 -3 -18 -6 9 -10 -22 -66 -33 -59 -15 9 -12 35
5 41 23 9 18 21 -12 33 -26 10 -25 11 12 6 22 -3 56 -5 76 -5z m819 -10 c0
-13 -5 -18 -15 -14 -8 4 -15 12 -15 20 0 8 7 14 15 14 8 0 15 -9 15 -20z
m-2640 0 c0 -5 -5 -10 -11 -10 -5 0 -7 5 -4 10 3 6 8 10 11 10 2 0 4 -4 4 -10z
m-387 -15 c-3 -9 -8 -14 -10 -11 -3 3 -2 9 2 15 9 16 15 13 8 -4z m3600 8 c-7
-2 -19 -2 -25 0 -7 3 -2 5 12 5 14 0 19 -2 13 -5z m-3493 -13 c0 -5 -2 -10 -4
-10 -3 0 -8 5 -11 10 -3 6 -1 10 4 10 6 0 11 -4 11 -10z m2497 4 c-3 -3 -12
-4 -19 -1 -8 3 -5 6 6 6 11 1 17 -2 13 -5z m-1747 -14 c0 -5 -5 -10 -11 -10
-5 0 -7 5 -4 10 3 6 8 10 11 10 2 0 4 -4 4 -10z m1615 0 c3 -5 -1 -10 -9 -10
-9 0 -16 5 -16 10 0 6 4 10 9 10 6 0 13 -4 16 -10z m1115 0 c0 -5 -4 -10 -10
-10 -5 0 -10 5 -10 10 0 6 5 10 10 10 6 0 10 -4 10 -10z m-2275 -37 c-3 -16
-13 -35 -21 -44 -7 -8 -19 -30 -25 -47 -9 -27 -14 -30 -25 -21 -12 10 -18 8
-28 -7 -16 -21 -32 -14 -23 11 4 8 16 15 27 15 13 0 20 7 20 19 0 11 11 28 24
38 13 10 26 29 30 41 11 33 30 28 21 -5z m585 9 c0 -11 -10 -23 -22 -29 -22
-10 -25 -19 -29 -100 -1 -13 -6 -23 -11 -23 -6 0 -8 14 -4 34 6 31 4 35 -24
47 -16 8 -30 20 -30 26 0 19 17 16 24 -4 6 -14 12 -12 36 17 17 19 30 38 30
43 0 4 7 7 15 7 8 0 15 -8 15 -18z m210 3 c0 -8 -4 -15 -9 -15 -4 0 -6 -11 -3
-25 3 -16 0 -25 -8 -25 -7 0 -10 6 -7 14 3 8 0 13 -6 12 -23 -3 -37 -17 -37
-37 0 -10 -4 -19 -10 -19 -5 0 -10 9 -10 20 0 21 -20 28 -21 8 0 -7 -5 -3 -11
10 -6 12 -15 22 -20 22 -4 0 -8 4 -8 9 0 4 17 8 38 9 20 0 51 7 67 16 37 20
45 20 45 1z m320 5 c0 -5 -4 -10 -10 -10 -5 0 -10 5 -10 10 0 6 5 10 10 10 6
0 10 -4 10 -10z m-856 -25 c3 -9 0 -15 -9 -15 -8 0 -15 7 -15 15 0 8 4 15 9
15 5 0 11 -7 15 -15z m-1724 -29 c-14 -14 -22 -2 -14 18 5 14 9 15 15 4 4 -7
4 -17 -1 -22z m75 15 c-3 -6 -11 -8 -17 -5 -6 4 -5 9 3 15 16 10 23 4 14 -10z
m1144 -5 c-11 -10 -49 -16 -49 -8 0 13 44 31 49 20 1 -5 1 -11 0 -12z m1333
-18 c-2 -15 -8 -28 -14 -28 -5 0 -20 -12 -33 -27 -16 -19 -27 -25 -34 -18 -14
14 45 104 68 102 13 -1 16 -8 13 -29z m268 2 c0 -11 -4 -20 -10 -20 -5 0 -10
9 -10 20 0 11 5 20 10 20 6 0 10 -9 10 -20z m105 10 c-3 -5 -12 -7 -20 -3 -21
7 -19 13 6 13 11 0 18 -4 14 -10z m-818 -15 c28 -20 33 -52 14 -90 l-16 -30
-3 33 c-2 21 -9 32 -19 32 -11 0 -14 -7 -11 -25 4 -21 3 -23 -9 -13 -8 6 -12
17 -9 25 3 7 -2 13 -12 14 -9 1 -2 6 16 11 33 11 44 28 17 28 -16 0 -20 12 -8
23 9 10 16 9 40 -8z m1836 8 c-7 -2 -19 -2 -25 0 -7 3 -2 5 12 5 14 0 19 -2
13 -5z m-2163 -14 c0 -7 8 -18 18 -26 15 -13 15 -14 0 -9 -21 6 -39 -15 -36
-44 2 -13 -3 -25 -9 -27 -8 -3 -13 4 -13 17 0 16 -4 20 -15 16 -19 -7 -66 14
-59 26 3 4 10 6 15 3 5 -4 13 4 18 17 6 13 10 17 10 11 1 -21 21 -14 21 7 0
15 7 20 25 20 14 0 25 -5 25 -11z m-1427 -34 c-3 -8 -9 -15 -14 -15 -10 0 -12
24 -3 33 11 11 24 -3 17 -18z m1971 -7 c4 -17 2 -28 -4 -28 -5 0 -10 14 -10
32 0 36 4 35 14 -4z m-1170 13 c4 -5 3 -17 0 -26 -5 -13 -8 -14 -15 -3 -5 7
-9 19 -9 26 0 14 16 16 24 3z m1266 -11 c0 -5 -4 -10 -10 -10 -5 0 -10 5 -10
10 0 6 5 10 10 10 6 0 10 -4 10 -10z m1560 6 c0 -3 -4 -8 -10 -11 -5 -3 -10
-1 -10 4 0 6 5 11 10 11 6 0 10 -2 10 -4z m-3696 -15 c4 -5 -3 -7 -14 -4 -14
4 -22 -2 -30 -21 -10 -27 -30 -36 -30 -13 1 33 59 63 74 38z m1888 -11 c-10
-12 -18 -16 -21 -9 -2 6 3 15 10 20 24 15 29 10 11 -11z m1671 13 c-7 -2 -19
-2 -25 0 -7 3 -2 5 12 5 14 0 19 -2 13 -5z m270 -7 c7 -19 -1 -26 -30 -26 -15
0 -23 6 -23 16 0 14 2 15 17 3 15 -12 16 -12 10 4 -4 11 -2 17 7 17 8 0 16 -6
19 -14z m-3249 -20 c-3 -9 -10 -16 -15 -16 -14 0 -11 28 4 33 16 6 19 3 11
-17z m2579 17 c-7 -2 -13 -12 -13 -20 0 -9 -3 -14 -6 -10 -10 10 4 37 18 36
10 0 10 -2 1 -6z m747 -27 c0 -8 -9 -13 -24 -12 -18 1 -22 4 -14 14 14 16 38
15 38 -2z m-3692 -8 c-6 -18 -28 -21 -28 -4 0 9 7 16 16 16 9 0 14 -5 12 -12z
m-458 -8 c0 -5 -4 -10 -10 -10 -5 0 -10 5 -10 10 0 6 5 10 10 10 6 0 10 -4 10
-10z m2347 -22 c-3 -7 -5 -2 -5 12 0 14 2 19 5 13 2 -7 2 -19 0 -25z m47 8
c-1 -9 2 -16 7 -16 5 0 4 -9 -3 -20 -12 -18 -13 -17 -25 12 -7 16 -10 34 -7
40 9 14 29 3 28 -16z m1676 13 c0 -5 -9 -9 -21 -9 -14 0 -19 -5 -16 -13 8 -20
-10 -44 -23 -31 -16 16 9 59 37 60 12 1 23 -2 23 -7z m-3003 -21 c-14 -21 -27
-24 -27 -5 0 17 6 24 24 24 11 0 12 -4 3 -19z m273 18 c0 -2 -7 -9 -15 -16
-12 -10 -15 -10 -15 4 0 9 7 16 15 16 8 0 15 -2 15 -4z m350 -16 c0 -11 -7
-23 -15 -26 -8 -4 -15 -14 -15 -23 -1 -11 -5 -9 -14 8 -11 20 -11 26 3 42 22
24 41 23 41 -1z m260 5 c0 -8 -4 -15 -10 -15 -5 0 -7 7 -4 15 4 8 8 15 10 15
2 0 4 -7 4 -15z m2422 -8 c-7 -8 -9 -17 -5 -20 3 -4 -5 -7 -18 -7 -19 0 -21 2
-9 10 8 5 11 10 5 10 -5 0 -1 7 9 15 23 17 34 12 18 -8z m185 -28 c-15 -35
-23 -46 -26 -33 -3 19 27 84 40 84 4 0 -2 -23 -14 -51z m-3253 25 c8 -22 8
-24 -8 -24 -15 0 -28 24 -19 34 11 10 21 7 27 -10z m2989 -10 c-4 -10 -9 -12
-15 -6 -12 12 -1 35 12 27 5 -3 6 -13 3 -21z m-4113 -4 c0 -19 -18 -19 -23 -1
-3 14 -1 18 9 14 8 -3 14 -9 14 -13z m1715 10 c-3 -5 -13 -10 -21 -10 -8 0
-12 5 -9 10 3 6 13 10 21 10 8 0 12 -4 9 -10z m455 -62 c0 -5 -9 -8 -20 -8
-11 0 -20 -4 -20 -10 0 -5 -7 -10 -15 -10 -19 0 -19 10 0 38 14 18 19 20 35 9
11 -6 20 -15 20 -19z m1637 17 c0 -8 -4 -12 -9 -9 -4 3 -8 9 -8 15 0 5 4 9 8
9 5 0 9 -7 9 -15z m-2947 -15 c0 -11 -4 -20 -9 -20 -11 0 -22 26 -14 34 12 12
23 5 23 -14z m-836 -15 c3 -9 0 -15 -9 -15 -16 0 -27 14 -18 24 10 10 21 7 27
-9z m1066 -15 c0 -5 -4 -10 -10 -10 -5 0 -10 5 -10 10 0 6 5 10 10 10 6 0 10
-4 10 -10z m-1250 -40 c0 -5 -5 -10 -11 -10 -5 0 -7 5 -4 10 3 6 8 10 11 10 2
0 4 -4 4 -10z m1220 -16 c0 -8 -6 -14 -14 -14 -8 0 -23 -3 -33 -7 -15 -5 -13
-1 6 20 24 27 41 27 41 1z m3714 10 c9 -3 13 -10 10 -15 -3 -5 -1 -9 4 -9 5 0
14 -18 20 -40 5 -22 6 -38 2 -35 -5 3 -15 2 -24 -1 -11 -4 -13 -11 -6 -30 9
-22 7 -24 -20 -24 -17 0 -30 5 -30 10 0 14 -16 12 -32 -4 -8 -8 -26 -11 -45
-9 -17 3 -44 -2 -63 -12 -53 -27 -53 -19 3 75 49 82 118 118 181 94z m-4016
-76 c-6 -18 -28 -21 -28 -4 0 9 7 16 16 16 9 0 14 -5 12 -12z m4462 -13 c0 -8
5 -15 10 -15 6 0 10 -9 10 -21 0 -12 -5 -19 -12 -16 -7 2 -13 12 -13 23 0 14
-8 20 -33 22 -39 4 -33 22 9 22 19 0 29 -5 29 -15z m185 -5 c3 -5 -1 -10 -10
-10 -9 0 -13 5 -10 10 3 6 8 10 10 10 2 0 7 -4 10 -10z m-5274 -63 c-1 -12
-15 -9 -19 4 -3 6 1 10 8 8 6 -3 11 -8 11 -12z m-171 -12 c0 -8 -4 -15 -10
-15 -5 0 -10 7 -10 15 0 8 5 15 10 15 6 0 10 -7 10 -15z m-33 -57 c-3 -8 -6
-5 -6 6 -1 11 2 17 5 13 3 -3 4 -12 1 -19z m5278 12 c31 -12 43 -39 24 -51 -8
-5 -34 -9 -58 -9 -25 0 -59 -5 -77 -12 -39 -14 -58 -2 -62 36 -1 19 5 27 26
34 36 14 114 15 147 2z m-307 -23 c5 -24 -13 -28 -63 -17 -61 14 -115 4 -115
-20 0 -19 -25 -34 -41 -24 -11 6 -12 68 -2 78 5 4 55 5 113 3 82 -4 106 -9
108 -20z m-4888 -32 c0 -8 -6 -15 -14 -15 -8 0 -16 7 -20 15 -4 10 1 15 14 15
11 0 20 -7 20 -15z m4523 -13 c9 -8 17 -19 17 -24 0 -13 -27 -9 -40 7 -18 22
-36 18 -72 -15 l-33 -30 51 6 c58 7 94 -7 94 -35 0 -31 -36 -52 -109 -64 -77
-12 -121 -1 -121 29 0 21 109 131 142 143 26 9 45 5 71 -17z m-4423 4 c0 -3
-4 -8 -10 -11 -5 -3 -10 -1 -10 4 0 6 5 11 10 11 6 0 10 -2 10 -4z m-44 -33
c-10 -10 -19 5 -10 18 6 11 8 11 12 0 2 -7 1 -15 -2 -18z m98 -14 c-8 -14 -24
-10 -24 6 0 9 6 12 15 9 8 -4 12 -10 9 -15z m5060 2 c7 -10 -3 -41 -13 -41
-17 1 -33 20 -28 34 7 17 32 22 41 7z m-5159 -21 c3 -5 1 -10 -4 -10 -6 0 -11
5 -11 10 0 6 2 10 4 10 3 0 8 -4 11 -10z m3993 -57 c5 -33 -28 -46 -78 -31
-50 16 -51 33 -2 46 54 15 76 11 80 -15z m-4020 -135 c-14 -25 -34 -48 -41
-48 -3 0 3 16 11 35 9 19 22 35 29 35 11 0 11 -4 1 -22z m3868 -299 c7 -12
-15 -31 -28 -23 -4 3 -8 12 -8 20 0 17 26 19 36 3z m93 -42 c13 -16 5 -27 -19
-27 -20 0 -43 24 -33 33 11 12 40 8 52 -6z m326 -38 c11 -35 -6 -42 -93 -40
-44 1 -60 16 -48 46 4 11 22 15 70 15 57 0 65 -3 71 -21z m1049 9 c16 -50 16
-69 0 -75 -10 -4 -22 0 -29 10 -9 12 -32 17 -101 19 -71 2 -89 6 -89 18 0 12
18 16 88 18 48 1 87 7 87 12 0 15 40 12 44 -2z m-586 -10 c20 -20 14 -50 -15
-81 l-28 -29 90 2 c125 3 117 5 113 -37 l-3 -38 -77 -3 -78 -3 -8 -31 c-13
-51 -32 -56 -86 -18 -35 23 -51 29 -59 21 -29 -29 -72 4 -63 47 6 24 0 32 -49
70 -56 44 -67 69 -40 92 18 15 43 7 80 -28 17 -15 41 -35 55 -45 24 -17 25
-17 76 38 53 56 71 64 92 43z m-548 -189 c0 -4 -4 -10 -9 -13 -14 -9 -34 22
-26 41 6 17 7 17 21 -1 8 -11 14 -23 14 -27z m1188 -92 c7 -35 -8 -64 -39 -77
-25 -11 -36 -11 -62 2 -24 11 -43 12 -75 5 -24 -4 -46 -6 -49 -3 -14 13 9 34
49 44 25 6 53 21 63 32 25 28 108 25 113 -3z m-3778 -877 c0 -5 -4 -10 -10
-10 -5 0 -10 5 -10 10 0 6 5 10 10 10 6 0 10 -4 10 -10z m-1430 -314 c0 -8 -6
-16 -12 -18 -7 -3 -13 -11 -13 -19 -1 -20 -26 -131 -35 -154 -5 -11 -11 -29
-15 -40 -5 -15 -8 -17 -15 -6 -4 8 -6 20 -3 28 7 19 -62 -28 -87 -59 -17 -21
-19 -21 -25 -5 -5 12 -18 17 -45 17 -29 0 -46 7 -68 30 -18 17 -41 30 -56 30
-13 0 -28 5 -31 10 -3 6 -15 10 -26 10 -10 0 -19 3 -19 8 0 4 -14 15 -30 24
-30 17 -30 18 -14 43 9 14 12 25 8 25 -5 0 2 9 16 20 14 11 41 20 60 20 20 0
41 5 48 12 7 7 12 9 12 5 0 -4 10 -3 21 4 14 7 73 10 160 10 91 -1 139 2 139
9 0 5 7 10 15 10 8 0 15 -6 15 -14z"/>
<path d="M4600 10650 c0 -5 15 -10 33 -10 24 0 28 3 17 10 -20 13 -50 13 -50
0z"/>
<path d="M3462 9738 c-21 -21 -14 -57 14 -70 17 -8 28 -8 32 -2 4 6 16 14 26
18 18 6 17 9 -9 36 -31 33 -45 36 -63 18z"/>
<path d="M5565 9480 c3 -5 11 -10 16 -10 6 0 7 5 4 10 -3 6 -11 10 -16 10 -6
0 -7 -4 -4 -10z"/>
<path d="M3008 8103 c6 -2 18 -2 25 0 6 3 1 5 -13 5 -14 0 -19 -2 -12 -5z"/>
<path d="M3320 8086 c0 -8 5 -18 10 -21 6 -4 10 -16 8 -28 -2 -12 2 -22 7 -22
6 0 16 -4 23 -8 8 -6 12 -2 12 10 0 37 -12 62 -26 56 -8 -3 -14 1 -14 11 0 9
-4 16 -10 16 -5 0 -10 -6 -10 -14z"/>
<path d="M2968 8083 c6 -2 18 -2 25 0 6 3 1 5 -13 5 -14 0 -19 -2 -12 -5z"/>
<path d="M3235 8080 c3 -5 14 -10 23 -10 15 0 15 2 2 10 -20 13 -33 13 -25 0z"/>
<path d="M3175 8070 c3 -5 8 -10 11 -10 2 0 4 5 4 10 0 6 -5 10 -11 10 -5 0
-7 -4 -4 -10z"/>
<path d="M3260 8031 c0 -20 17 -37 27 -28 7 8 -7 47 -18 47 -5 0 -9 -9 -9 -19z"/>
<path d="M2475 7906 c-33 -12 -107 -34 -165 -49 -58 -16 -112 -31 -120 -34 -8
-4 -67 -23 -130 -44 -115 -38 -115 -38 -63 -39 28 0 55 5 58 10 3 6 15 10 27
10 11 0 36 8 56 17 26 12 37 14 40 5 2 -7 11 -12 19 -12 12 0 13 3 4 14 -9 11
-8 15 5 20 25 9 64 7 64 -4 0 -5 -6 -10 -14 -10 -24 0 -26 -29 -3 -45 20 -14
22 -14 28 2 4 10 5 21 2 26 -6 10 11 9 22 -2 6 -5 21 -12 35 -16 19 -5 21 -4
10 4 -12 8 -8 11 16 11 17 0 37 7 44 15 14 16 11 17 -40 17 -31 -1 -32 0 -10
7 l25 7 -28 7 c-38 10 -23 30 18 25 19 -2 33 0 32 6 -3 16 61 28 85 15 17 -9
20 -9 15 4 -6 17 38 41 55 31 6 -4 8 -2 4 4 -3 6 2 13 11 15 10 3 5 5 -12 5
-16 0 -57 -10 -90 -22z m-155 -86 c0 -5 -10 -10 -22 -9 -22 0 -22 1 -3 9 11 5
21 9 23 9 1 1 2 -3 2 -9z"/>
<path d="M2133 7762 c-8 -5 -9 -13 -3 -22 8 -13 10 -13 10 2 0 9 6 19 13 21 6
3 8 6 2 6 -5 0 -15 -3 -22 -7z"/>
<path d="M2210 7718 c0 -19 2 -20 10 -8 13 19 13 30 0 30 -5 0 -10 -10 -10
-22z"/>
<path d="M1930 7660 c0 -5 5 -10 11 -10 5 0 7 5 4 10 -3 6 -8 10 -11 10 -2 0
-4 -4 -4 -10z"/>
<path d="M4378 7663 c7 -3 16 -2 19 1 4 3 -2 6 -13 5 -11 0 -14 -3 -6 -6z"/>
<path d="M1550 7544 c0 -11 5 -14 16 -10 9 3 20 6 25 6 5 0 9 5 9 10 0 6 -11
10 -25 10 -16 0 -25 -6 -25 -16z"/>
<path d="M1637 7516 c-16 -23 -13 -36 6 -36 5 0 7 6 4 14 -3 7 0 19 6 25 6 6
8 13 5 16 -3 3 -12 -5 -21 -19z"/>
<path d="M1671 7504 c0 -11 3 -14 6 -6 3 7 2 16 -1 19 -3 4 -6 -2 -5 -13z"/>
<path d="M1130 7185 c0 -8 5 -15 10 -15 6 0 10 7 10 15 0 8 -4 15 -10 15 -5 0
-10 -7 -10 -15z"/>
<path d="M3035 7310 c-3 -5 -1 -10 4 -10 6 0 11 5 11 10 0 6 -2 10 -4 10 -3 0
-8 -4 -11 -10z"/>
<path d="M3177 6352 c-7 -26 -13 -48 -12 -50 1 -1 23 4 49 12 54 17 86 41 86
67 0 14 -10 17 -55 18 l-54 0 -14 -47z"/>
<path d="M4709 6043 c-5 -15 -8 -41 -7 -57 l4 -31 22 45 c12 25 22 51 22 58 0
23 -30 12 -41 -15z"/>
<path d="M4080 4549 c0 -5 5 -7 10 -4 6 3 10 8 10 11 0 2 -4 4 -10 4 -5 0 -10
-5 -10 -11z"/>
<path d="M4070 4520 c0 -5 5 -10 10 -10 6 0 10 5 10 10 0 6 -4 10 -10 10 -5 0
-10 -4 -10 -10z"/>
<path d="M4106 4501 c-38 -31 -39 -60 0 -35 13 9 24 23 24 30 0 16 16 19 25 4
5 -8 11 -7 21 1 43 36 -24 36 -70 0z"/>
<path d="M3880 4440 c0 -5 5 -10 10 -10 6 0 10 5 10 10 0 6 -4 10 -10 10 -5 0
-10 -4 -10 -10z"/>
<path d="M4090 4415 c0 -8 5 -15 10 -15 6 0 10 7 10 15 0 8 -4 15 -10 15 -5 0
-10 -7 -10 -15z"/>
<path d="M3740 4384 c0 -9 5 -14 12 -12 18 6 21 28 4 28 -9 0 -16 -7 -16 -16z"/>
<path d="M3670 4330 c-12 -8 -10 -10 8 -10 13 0 20 4 17 10 -7 12 -6 12 -25 0z"/>
<path d="M4630 4379 c0 -11 5 -17 10 -14 6 3 10 13 10 21 0 8 -4 14 -10 14 -5
0 -10 -9 -10 -21z"/>
<path d="M4955 4360 c3 -5 8 -10 11 -10 2 0 4 5 4 10 0 6 -5 10 -11 10 -5 0
-7 -4 -4 -10z"/>
<path d="M4706 4331 c-5 -8 -1 -14 13 -18 15 -4 21 -13 21 -34 0 -34 16 -39
22 -6 6 32 -1 47 -22 47 -10 0 -20 5 -22 12 -3 9 -6 9 -12 -1z"/>
<path d="M4870 4293 c0 -23 15 -39 23 -26 3 5 -1 17 -9 28 -14 18 -14 18 -14
-2z"/>
<path d="M4690 4260 c0 -5 6 -10 14 -10 8 0 18 5 21 10 3 6 -3 10 -14 10 -12
0 -21 -4 -21 -10z"/>
<path d="M4990 4250 c0 -5 5 -10 10 -10 6 0 10 5 10 10 0 6 -4 10 -10 10 -5 0
-10 -4 -10 -10z"/>
<path d="M5220 4249 c0 -5 5 -7 10 -4 6 3 10 8 10 11 0 2 -4 4 -10 4 -5 0 -10
-5 -10 -11z"/>
<path d="M4974 4194 c3 -9 6 -20 6 -25 0 -5 4 -9 9 -9 5 0 9 11 9 25 0 15 -6
25 -15 25 -10 0 -13 -6 -9 -16z"/>
<path d="M5020 4200 c0 -5 5 -10 10 -10 6 0 10 5 10 10 0 6 -4 10 -10 10 -5 0
-10 -4 -10 -10z"/>
<path d="M2985 4320 c-3 -5 1 -10 9 -10 9 0 16 5 16 10 0 6 -4 10 -9 10 -6 0
-13 -4 -16 -10z"/>
</g>
</svg>
